<svg xmlns="http://www.w3.org/2000/svg" version="1.1" width="456px" height="456px" style="shape-rendering:geometricPrecision; text-rendering:geometricPrecision; image-rendering:optimizeQuality; fill-rule:evenodd; clip-rule:evenodd" xmlns:xlink="http://www.w3.org/1999/xlink">
	<g><path style="opacity:0.997" fill="#fefefe" d="M -0.5,-0.5 C 151.5,-0.5 303.5,-0.5 455.5,-0.5C 455.5,151.5 455.5,303.5 455.5,455.5C 303.5,455.5 151.5,455.5 -0.5,455.5C -0.5,303.5 -0.5,151.5 -0.5,-0.5 Z" /></g>
	<g><path style="opacity:1" fill="#37c0c0" d="M 385.5,171.5 C 385.918,172.222 386.584,172.722 387.5,173C 385.893,174.049 385.227,175.549 385.5,177.5C 384.167,177.5 382.833,177.5 381.5,177.5C 379.696,176.838 377.696,176.505 375.5,176.5C 372.186,176.343 369.186,177.009 366.5,178.5C 365.153,179.171 363.986,179.171 363,178.5C 357.668,155.814 343.501,145.648 320.5,148C 303.846,155.781 295.012,168.948 294,187.5C 293.251,181.009 293.584,174.676 295,168.5C 291.043,166.781 286.876,166.114 282.5,166.5C 285.305,165.681 288.305,165.181 291.5,165C 291.833,164.667 292.167,164.333 292.5,164C 290.563,163.878 289.23,163.045 288.5,161.5C 288.833,161.5 289.167,161.5 289.5,161.5C 292.049,161.387 294.382,162.054 296.5,163.5C 311.658,140.173 330.991,136.006 354.5,151C 360.466,156.285 364.8,162.619 367.5,170C 373.523,170.359 379.523,170.859 385.5,171.5 Z" /></g>
	<g><path style="opacity:1" fill="#2fbfba" d="M 176.5,150.5 C 191.909,148.438 199.076,155.105 198,170.5C 194.568,182.238 186.734,187.071 174.5,185C 165.752,180.455 162.585,173.288 165,163.5C 167.3,157.706 171.133,153.373 176.5,150.5 Z" /></g>
	<g><path style="opacity:1" fill="#29beb9" d="M 65.5,150.5 C 85.9812,146.819 94.8145,155.152 92,175.5C 89.6773,187.127 87.5106,198.794 85.5,210.5C 85.8333,211.167 86.1667,211.833 86.5,212.5C 98.0598,201.431 111.727,198.264 127.5,203C 135.76,206.93 140.594,213.43 142,222.5C 142.667,227.5 142.667,232.5 142,237.5C 138.252,259.82 134.585,282.154 131,304.5C 130.907,307.007 130.074,309.174 128.5,311C 119.255,311.817 110.089,311.65 101,310.5C 100.333,306.167 100.333,301.833 101,297.5C 104.816,278.091 107.982,258.591 110.5,239C 111.823,230.486 108.156,225.986 99.5,225.5C 90.1343,227.026 83.9676,232.359 81,241.5C 76.7094,264.116 72.7094,286.782 69,309.5C 68.5,310 68,310.5 67.5,311C 57.9223,311.818 48.4223,311.651 39,310.5C 38.3333,308.167 38.3333,305.833 39,303.5C 47.4084,252.381 56.2418,201.381 65.5,150.5 Z" /></g>
	<g><path style="opacity:1" fill="#29beb9" d="M 232.5,225.5 C 231.087,228.219 230.42,231.219 230.5,234.5C 229.508,237.779 229.341,241.112 230,244.5C 239.709,233.794 249.042,222.794 258,211.5C 265.437,202.137 274.937,199.304 286.5,203C 289.39,204.938 292.056,207.105 294.5,209.5C 281.634,223.864 268.967,238.364 256.5,253C 266.72,272.773 277.72,292.106 289.5,311C 279.833,311.667 270.167,311.667 260.5,311C 254.392,308.559 249.892,304.392 247,298.5C 240.604,285.375 233.937,272.375 227,259.5C 223.135,276.026 220.135,292.693 218,309.5C 217.5,310 217,310.5 216.5,311C 207.167,311.667 197.833,311.667 188.5,311C 187.398,308.599 187.231,306.099 188,303.5C 196.611,252.834 205.111,202.168 213.5,151.5C 220.508,151.334 227.508,151.5 234.5,152C 241.194,156.378 243.361,162.545 241,170.5C 237.947,188.816 235.114,207.15 232.5,225.5 Z" /></g>
	<g><path style="opacity:1" fill="#b2e0da" d="M 289.5,161.5 C 289.167,161.5 288.833,161.5 288.5,161.5C 284.466,161.505 280.466,161.838 276.5,162.5C 278.848,161.048 281.514,160.382 284.5,160.5C 286.369,160.507 288.036,160.84 289.5,161.5 Z" /></g>
	<g><path style="opacity:1" fill="#52c2b1" d="M 288.5,161.5 C 289.23,163.045 290.563,163.878 292.5,164C 292.167,164.333 291.833,164.667 291.5,165C 288.305,165.181 285.305,165.681 282.5,166.5C 279.426,166.873 276.426,167.539 273.5,168.5C 272.778,167.449 271.778,166.782 270.5,166.5C 272.147,164.674 274.147,163.34 276.5,162.5C 280.466,161.838 284.466,161.505 288.5,161.5 Z" /></g>
	<g><path style="opacity:1" fill="#64c4a5" d="M 270.5,166.5 C 271.778,166.782 272.778,167.449 273.5,168.5C 269.53,171.639 266.03,175.305 263,179.5C 261.429,184.39 260.262,189.39 259.5,194.5C 257.597,182.974 261.263,173.641 270.5,166.5 Z" /></g>
	<g><path style="opacity:1" fill="#42c1d1" d="M 385.5,171.5 C 390.783,173.14 395.449,175.806 399.5,179.5C 398.603,180.598 397.77,180.598 397,179.5C 396.392,181.154 395.892,182.821 395.5,184.5C 391.168,181.396 386.502,179.063 381.5,177.5C 382.833,177.5 384.167,177.5 385.5,177.5C 385.227,175.549 385.893,174.049 387.5,173C 386.584,172.722 385.918,172.222 385.5,171.5 Z" /></g>
	<g><path style="opacity:1" fill="#9fdedf" d="M 381.5,177.5 C 376.463,177.413 371.463,177.746 366.5,178.5C 369.186,177.009 372.186,176.343 375.5,176.5C 377.696,176.505 379.696,176.838 381.5,177.5 Z" /></g>
	<g><path style="opacity:1" fill="#41c1e6" d="M 399.5,179.5 C 414.044,192.958 419.877,209.624 417,229.5C 414.277,244.128 407.11,255.962 395.5,265C 394.668,265.688 394.002,265.521 393.5,264.5C 409.181,250.29 415.014,232.624 411,211.5C 408.393,200.944 403.227,191.944 395.5,184.5C 395.892,182.821 396.392,181.154 397,179.5C 397.77,180.598 398.603,180.598 399.5,179.5 Z" /></g>
	<g><path style="opacity:1" fill="#b8e4e2" d="M 354.5,201.5 C 346.471,201.344 338.471,201.677 330.5,202.5C 334.896,200.967 339.563,200.3 344.5,200.5C 348.018,200.502 351.351,200.835 354.5,201.5 Z" /></g>
	<g><path style="opacity:1" fill="#29beb9" d="M 354.5,201.5 C 375.082,206.961 382.582,220.294 377,241.5C 373.219,253.281 365.386,261.114 353.5,265C 340.517,269.33 327.184,271.164 313.5,270.5C 314.108,286.6 322.442,293.433 338.5,291C 346.362,288.902 352.695,284.569 357.5,278C 367.321,280.199 371.155,286.365 369,296.5C 364.207,304.169 357.374,309.336 348.5,312C 335.189,315.214 321.855,315.214 308.5,312C 290.933,303.218 282.6,288.884 283.5,269C 283.627,240.06 296.294,218.727 321.5,205C 324.432,203.855 327.432,203.022 330.5,202.5C 338.471,201.677 346.471,201.344 354.5,201.5 Z" /></g>
	<g><path style="opacity:1" fill="#29beb9" d="M 167.5,203.5 C 177.161,201.077 184.328,204.077 189,212.5C 189.167,214.333 189.333,216.167 189.5,218C 184.288,247.771 179.455,277.605 175,307.5C 174.535,308.931 173.701,310.097 172.5,311C 163.5,311.667 154.5,311.667 145.5,311C 145,310.5 144.5,310 144,309.5C 145.608,297.179 147.442,284.846 149.5,272.5C 150.913,269.781 151.58,266.781 151.5,263.5C 153.777,246.779 156.444,230.113 159.5,213.5C 160.657,210.727 161.324,207.727 161.5,204.5C 163.735,204.795 165.735,204.461 167.5,203.5 Z" /></g>
	<g><path style="opacity:1" fill="#9cdbd8" d="M 167.5,203.5 C 165.735,204.461 163.735,204.795 161.5,204.5C 161.324,207.727 160.657,210.727 159.5,213.5C 159.616,210.14 159.949,206.807 160.5,203.5C 162.833,203.5 165.167,203.5 167.5,203.5 Z" /></g>
	<g><path style="opacity:1" fill="#fbfdfd" d="M 326.5,251.5 C 323.167,251.5 319.833,251.5 316.5,251.5C 316.5,250.167 316.5,248.833 316.5,247.5C 318.905,237.52 324.571,230.02 333.5,225C 346.267,220.944 351.767,225.444 350,238.5C 344.666,247.089 336.833,251.422 326.5,251.5 Z" /></g>
	<g><path style="opacity:1" fill="#b1e2e0" d="M 232.5,225.5 C 232.58,228.781 231.913,231.781 230.5,234.5C 230.42,231.219 231.087,228.219 232.5,225.5 Z" /></g>
	<g><path style="opacity:1" fill="#a6e0dd" d="M 316.5,247.5 C 316.5,248.833 316.5,250.167 316.5,251.5C 319.833,251.5 323.167,251.5 326.5,251.5C 323.038,252.482 319.371,252.815 315.5,252.5C 315.216,250.585 315.549,248.919 316.5,247.5 Z" /></g>
	<g><path style="opacity:1" fill="#b4e3e0" d="M 151.5,263.5 C 151.58,266.781 150.913,269.781 149.5,272.5C 149.42,269.219 150.087,266.219 151.5,263.5 Z" /></g>
</svg>