<?xml version="1.0" encoding="UTF-8"?>
<svg version="1.1" xmlns="http://www.w3.org/2000/svg" width="60" height="60">
<path d="M0 0 C4.87268436 2.0882933 7.26047695 5.04289172 9.37109375 9.78515625 C10.90084927 15.17255611 9.74295561 19.59094625 7.1875 24.4375 C5.10124293 26.88140114 4.03326839 28.08082776 1 29 C-1.75 29.125 -1.75 29.125 -4 29 C-3.51871909 26.04356012 -3.02491857 23.11213356 -2.375 20.1875 C-2.25125 19.465625 -2.1275 18.74375 -2 18 C-3.12534105 16.64381501 -3.12534105 16.64381501 -6.0625 16.9375 C-7.031875 16.958125 -8.00125 16.97875 -9 17 C-9.89034986 19.49297962 -10.21044954 20.55104099 -9.0625 23 C-8.711875 23.66 -8.36125 24.32 -8 25 C-8 26.32 -8 27.64 -8 29 C-12.42895481 28.9114209 -15.28821414 28.2841725 -18.4375 25.1875 C-21.67060461 20.99226506 -21.73427283 16.97048297 -21.45703125 11.8125 C-20.83670039 7.9950793 -19.65695572 5.80057495 -17 3 C-11.54614769 -0.89828619 -6.49289771 -0.76646147 0 0 Z " fill="#0A7FB9" transform="translate(36,5)"/>
<path d="M0 0 C1.14662109 -0.00773437 1.14662109 -0.00773437 2.31640625 -0.015625 C4.4375 0.25 4.4375 0.25 7.4375 2.25 C7.95703125 4.49609375 7.95703125 4.49609375 7.4375 7.25 C5.72443418 9.46331594 4.08476057 11.34779678 2.125 13.3125 C-1.76645186 17.27930886 -1.76645186 17.27930886 -5.26171875 21.58984375 C-6.5625 23.25 -6.5625 23.25 -9.0625 23.75 C-11.5625 23.25 -11.5625 23.25 -13.18359375 21.51953125 C-15.5731034 17.5866556 -15.41530025 13.69138368 -14.5625 9.25 C-11.27726098 3.43438271 -6.78457029 -0.04591926 0 0 Z " fill="#097FB9" transform="translate(50.5625,32.75)"/>
<path d="M0 0 C3.77971879 1.28367808 5.6324865 2.61314368 8.375 5.5 C10.60457319 10.30215763 10.70522927 14.77638318 10 20 C8 23 8 23 5.265625 23.61328125 C0.45298852 22.70947272 -1.31894647 19.92496148 -4.25 16.1875 C-4.77851563 15.54490234 -5.30703125 14.90230469 -5.8515625 14.24023438 C-12.06061939 6.63650354 -12.06061939 6.63650354 -11.75 3.375 C-11.5025 2.59125 -11.255 1.8075 -11 1 C-7.5388228 -0.7305886 -3.79111116 -0.34522766 0 0 Z " fill="#0A7FB9" transform="translate(14,33)"/>
<path d="M0 0 C1.32 0.66 2.64 1.32 4 2 C4 3.32 4 4.64 4 6 C2.35 6 0.7 6 -1 6 C-1.33 5.01 -1.66 4.02 -2 3 C-1.34 2.01 -0.68 1.02 0 0 Z " fill="#1782B7" transform="translate(24,28)"/>
</svg>
