<?xml version="1.0" encoding="utf-8"?>
<!-- Generator: Adobe Illustrator 27.7.0, SVG Export Plug-In . SVG Version: 6.00 Build 0)  -->
<svg version="1.1" xmlns="http://www.w3.org/2000/svg" viewBox="0 0 96 96" height="96" width="96">
<style type="text/css">
	.st1{fill:none;stroke:#FFFFFF;stroke-miterlimit:10; stroke-width:3;}
</style>
<g id="Layer_2">
	<ellipse class="st1" cx="48" cy="24.5" rx="21.5" ry="7"/>
	<path class="st1" d="M25,48.5c-11.87,0-21.5-3.13-21.5-7s9.63-7,21.5-7"/>
	<path class="st1" d="M25,60.5c-11.87,0-21.5-3.13-21.5-7"/>
	<path class="st1" d="M25,72.5c-11.87,0-21.5-3.13-21.5-7"/>
	<path class="st1" d="M71,23.5c11.87,0,21.5,3.13,21.5,7s-9.63,7-21.5,7"/>
	<path class="st1" d="M92.5,42.5c0,3.87-9.63,7-21.5,7"/>
	<path class="st1" d="M92.5,54.5c0,3.87-9.63,7-21.5,7"/>
	<path class="st1" d="M92.5,65.5c0,3.87-9.63,7-21.5,7"/>
	<path class="st1" d="M69.5,36.5c0,3.87-9.63,7-21.5,7s-21.5-3.13-21.5-7"/>
	<path class="st1" d="M69.5,48.5c0,3.87-9.63,7-21.5,7s-21.5-3.13-21.5-7"/>
	<path class="st1" d="M69.5,59.5c0,3.87-9.63,7-21.5,7s-21.5-3.13-21.5-7"/>
	<path class="st1" d="M69.5,70.5c0,3.87-9.63,7-21.5,7s-21.5-3.13-21.5-7"/>
	<line class="st1" x1="26.5" y1="24.5" x2="26.5" y2="70.5"/>
	<line class="st1" x1="69.5" y1="24.5" x2="69.5" y2="70.5"/>
	<line class="st1" x1="3.5" y1="41.5" x2="3.5" y2="65.5"/>
	<line class="st1" x1="92.5" y1="30.5" x2="92.5" y2="65.5"/>
</g>
</svg>
