<?xml version="1.0" encoding="UTF-8"?>
<svg xmlns="http://www.w3.org/2000/svg" version="1.1" xmlns:xlink="http://www.w3.org/1999/xlink" viewBox="0 0 60 60" height="60" width="60">
  <defs>
    <style>
      .cls-1 {
        fill: url(#radial-gradient);
      }

      .cls-2 {
        fill: #211f20;
      }
    </style>
    <radialGradient id="radial-gradient" cx="19.6" cy="29.2" fx="19.6" fy="29.2" r="6.7" gradientTransform="translate(0 60) scale(1 -1)" gradientUnits="userSpaceOnUse">
      <stop offset="0" stop-color="#fff"/>
      <stop offset=".3" stop-color="#f1a4a2"/>
      <stop offset=".6" stop-color="#e5524e"/>
      <stop offset=".7" stop-color="#e1332e"/>
    </radialGradient>
  </defs>
  <!-- Generator: Adobe Illustrator 28.6.0, SVG Export Plug-In . SVG Version: 1.2.0 Build 709)  -->
  <g>
    <g id="Layer_1">
      <g id="Layer_2">
        <g>
          <path class="cls-2" d="M57.4,46.7h-2.7l-17.8-30.3-10.4,19.5c-.2.3-3.1,3.8-7.6,3.4-3.3-.3-6.2-2.5-7.4-5.8,0-.2-1.5-5.1,1.9-8.7.3-.3,2.6-2.7,6.3-2.6,3.6,0,6.9,2.7,8.3,6.5l9-16.6,20.5,34.4h0Z"/>
          <path class="cls-2" d="M46.8,46.6h-2.4c-2.4-4.1-4.9-8.2-7.3-12.2-.7,1.4-1.5,2.8-2.2,4.3-.4.7-4.4,7.9-13,9.1-7.9,1-13.4-3.9-14-4.6-.7-.6-6-5.9-5.3-13.9,0-.6.9-8.5,8-12.9,4.8-2.9,9.5-2.6,10.8-2.4,6.4.7,10.9,4.7,11.8,5.6l-.9,1.9c-.6-.8-5-5-11.5-5.4-1.1,0-6.3-.3-10.8,3.5-.8.7-4.6,4-5.2,9.8-.5,5.5,2.2,10.8,6.3,13.7,1.2.9,4.8,3.2,9.8,2.8,6.8-.5,10.6-5.7,11.1-6.4,1.6-3.1,3.2-6.1,4.9-9.2,3.4,5.5,6.7,10.9,10.1,16.4h0Z"/>
          <circle class="cls-1" cx="19.6" cy="30.8" r="6.7"/>
          <path class="cls-2" d="M49.7,46.5h2.3c-5-8.5-10-16.9-15-25.4-2.7,5-5.3,10.1-8,15.2-2.1,3.6-6,5.8-10.1,5.4-4.7-.3-8.5-3.8-9.6-8.1-1.1-4.1.4-8.5,3.6-11.2,3.9-3.2,8.5-2.3,9-2.2,4.9,1,7.4,4.9,7.7,5.5.4-.7.8-1.4,1.2-2.1-.6-.8-3.6-4.4-8.5-5.4-4.2-.9-7.4.6-8.3,1-.9.5-4.4,2.3-6.2,6.5-.5,1-1.5,3.9-.8,7.7.2,1,1.1,4.9,4.8,7.6,3.3,2.5,6.8,2.7,8.4,2.6,3.7-.1,6.2-1.8,6.8-2.3,2.1-1.5,3.3-3.2,3.9-4.2,2-3.9,4.1-7.8,6.1-11.7,4.2,7,8.5,14,12.7,21h0Z"/>
        </g>
      </g>
    </g>
    <metadata>
      <sfw xmlns="http://ns.adobe.com/SaveForWeb/1.0/">
        <slices/>
        <sliceSourceBounds x="36.48" y="46.13" width="55" height="35.62" bottomLeftOrigin="true"/>
      </sfw>
    </metadata>
  </g>
</svg>