<?xml version="1.0" encoding="utf-8"?>
<!-- Generator: Adobe Illustrator 27.7.0, SVG Export Plug-In . SVG Version: 6.00 Build 0)  -->
<svg version="1.1" xmlns="http://www.w3.org/2000/svg" viewBox="0 0 120 120" height="120" width="120">
<style type="text/css">
	.st1{fill:#00C09A;}
</style>
<g id="Layer_2">
	<path class="st1" d="M110,36.5c0,1.24-0.45,2.37-1.2,3.24l-0.62,0.62L51,96.5l-1.29,0.7c-0.53,0.19-1.11,0.3-1.71,0.3
		c-1.42,0-2.7-0.59-3.61-1.54l-0.01-0.01L11.82,64.36l-0.14-0.13C10.65,63.33,10,61.99,10,60.5c0-1.13,0.38-2.17,1.01-3.01l1.01-1
		l8.79-8.72l1.48-1.47c0.78-0.51,1.71-0.8,2.71-0.8c1.67,0,3.14,0.82,4.05,2.07L48,65.5h1.22L91,24.5l1.05-1.04h0.01
		c0.83-0.61,1.84-0.96,2.94-0.96c0.97,0,1.87,0.28,2.64,0.76l1.29,1.15L108,32.5C109.21,33.41,110,34.87,110,36.5z"/>
</g>
</svg>
