<?xml version="1.0" encoding="UTF-8"?>
<svg xmlns="http://www.w3.org/2000/svg" version="1.1" viewBox="0 0 652 652">
  <defs>
    <style>
      .cls-1 {
        fill: #43b02a;
      }
    </style>
  </defs>
  <!-- Generator: Adobe Illustrator 28.7.1, SVG Export Plug-In . SVG Version: 1.2.0 Build 142)  -->
  <g>
    <g id="layer">
      <path class="cls-1" d="M306.4,172.2c.4-54.7-32.3-104.2-82.9-125.4-50.2-21.2-108.7-9.8-147.5,28.6-38.8,38.4-50.7,96.8-29.8,147.5,20.8,50.7,70.3,83.7,125,83.7h135.2v-134.4ZM345.6,172.2c-.4-54.7,32.3-104.2,82.9-125.4,50.2-21.2,108.7-9.8,147.5,28.6,38.8,38.4,50.7,96.8,29.8,147.5-20.8,50.7-70.3,83.7-125,83.7h-135.2v-134.4ZM345.6,479.8c-.4,54.7,32.3,104.2,82.9,125.4,50.7,21.2,108.7,9.8,147.5-28.6,38.8-38.4,50.7-96.8,29.8-147.5-20.8-50.7-70.3-83.7-125-83.7h-135.2v134.4ZM171.6,576.2c53.5,0,96.8-42.9,97.2-96.4v-96.4h-97.2c-53.1,0-96.4,43.3-96.4,96.4,0,53.1,42.9,96.4,96.4,96.4ZM306.4,479.8c.4,54.7-32.3,104.2-82.9,125.4-50.7,21.2-108.7,9.8-147.5-28.6-38.8-38.4-50.7-96.8-29.8-147.5s70.3-83.7,125-83.7h135.2v134.4Z"/>
    </g>
    <metadata>
      <sfw xmlns="http://ns.adobe.com/SaveForWeb/1.0/">
        <slices/>
        <sliceSourceBounds x="36" y="36.21" width="580" height="579.59" bottomLeftOrigin="true"/>
      </sfw>
    </metadata>
  </g>
</svg>