<?xml version="1.0" encoding="UTF-8"?>
<svg xmlns="http://www.w3.org/2000/svg" version="1.1" viewBox="0 0 500 500">
  <defs>
    <style>
      .cls-1 {
        fill: #fefefe;
      }
    </style>
  </defs>
  <!-- Generator: Adobe Illustrator 28.7.1, SVG Export Plug-In . SVG Version: 1.2.0 Build 142)  -->
  <g>
    <g id="Layer_1">
      <g>
        <path d="M213,441.9c-.3-.7-1-.6-1.6-.8-13.2-3.6-20.7-12.2-23-25.5-1.1-6.3-2-12.5-3.1-18.8-2.4-14-15.9-22.2-29.4-17.7-6.5,2.2-12.8,4.8-19.2,7.1-15,5.5-29.5.3-37.5-13.5-10.3-17.6-20.5-35.3-30.6-53-8-14-5.3-28.9,7-39.3,5-4.3,10.2-8.3,15.3-12.6,11.2-9.6,11.1-25.3,0-34.8-5.2-4.4-10.6-8.7-15.8-13.1-11.4-9.8-14.2-24.8-6.8-37.8,10.4-18.3,20.9-36.5,31.5-54.6,7.6-12.9,22-18,36.2-13.1,6.4,2.2,12.8,4.9,19.2,7.2,14.2,5,27.9-3.1,30.4-18,1.2-7,2.3-14,3.7-21,2.8-13.6,14.6-23.5,28.4-23.6,21.4-.2,42.9-.2,64.3,0,14.9.1,26.7,11,29.1,26.5,1,6.1,2,12.3,3,18.4,2.4,14.2,15.9,22.4,29.6,17.9,6.4-2.1,12.6-4.7,18.9-7,15.1-5.5,29.5-.5,37.6,13.3,10.4,17.7,20.6,35.5,30.8,53.3,7.9,13.8,5.2,28.7-7,39-4.9,4.2-10,8.2-15,12.4-11.6,9.8-11.7,25.5-.1,35.3,5.1,4.4,10.4,8.5,15.5,12.9,11.6,9.9,14.3,24.9,6.8,38.1-10.3,18.2-20.8,36.3-31.3,54.3-7.7,13-22.2,18.2-36.5,13.2-6.2-2.2-12.3-4.7-18.5-6.9-14.6-5.3-28.3,2.7-30.9,18-1.1,6.6-2.1,13.3-3.5,19.9-2.8,13.1-10.8,21.2-24,24-.3,0-.6.4-.9.6h-72.6Z"/>
        <path class="cls-1" d="M129,250.4c-.5-16.3-6.7-29.9-19.2-40.5-4.6-3.8-9.2-7.7-13.9-11.4-1.5-1.2-1.8-2.1-.8-3.9,9.7-16.7,19.3-33.4,28.9-50.1,1-1.7,1.8-2.1,3.8-1.4,8.3,2.9,16.3,6.8,25,8.6,28,6,56.5-13.1,61.6-41.3,1.1-6.2,2.1-12.5,3.1-18.8.3-2.1.9-3.1,3.4-3.1,19.1.1,38.2.1,57.2,0,2.6,0,3.1,1,3.4,3.1,1.1,6.9,1.9,13.8,3.5,20.6,7.5,31.6,39.8,48.3,70.9,36.6,5.1-1.9,10.3-3.7,15.3-5.8,2-.8,2.8-.4,3.8,1.4,9.6,16.7,19.2,33.4,28.9,50.1,1.1,1.8.8,2.7-.8,3.9-4.5,3.5-8.9,7.2-13.3,10.9-26.4,21.8-26.4,60.2,0,82,4.5,3.7,9,7.5,13.6,11.1,1.4,1.1,1.5,1.8.7,3.3-9.8,16.9-19.6,33.8-29.3,50.7-1,1.8-2,1.6-3.6,1-8.3-2.9-16.3-6.8-25-8.6-28-6-56.6,13.1-61.6,41.3-1.1,6.1-2.1,12.3-3.1,18.4-.4,2.3-.9,3.5-3.9,3.5-18.8-.2-37.7-.2-56.5,0-2.9,0-3.5-1.1-3.9-3.5-1.1-7-2-14.1-3.7-20.9-7.5-30.5-39.3-47.3-68.8-36.5-5.7,2.1-11.5,4.1-17.1,6.4-1.9.8-2.8.4-3.8-1.3-9.6-16.7-19.2-33.4-28.9-50.1-1-1.8-.8-2.7.7-3.9,4.7-3.7,9.3-7.5,13.9-11.4,12.6-10.6,18.8-24.2,19.3-40.5Z"/>
        <path d="M249.6,324.3c-40.5,0-73.7-33.2-73.9-73.7-.1-40.6,33.3-74.1,73.9-74.1,40.7,0,74,33.5,73.9,74.1-.2,40.6-33.4,73.7-73.9,73.7Z"/>
        <path class="cls-1" d="M250.1,206.4c24.2.4,43.9,20.6,43.5,44.5-.5,24.1-20.4,43.6-44.2,43.4-24.1-.2-44-20.4-43.7-44.3.3-24.1,20.5-44,44.4-43.6Z"/>
      </g>
    </g>
    <metadata>
      <sfw xmlns="http://ns.adobe.com/SaveForWeb/1.0/">
        <slices/>
        <sliceSourceBounds x="63.9" y="58.07" width="371.43" height="383.19" bottomLeftOrigin="true"/>
      </sfw>
    </metadata>
  </g>
</svg>