<?xml version="1.0" encoding="utf-8"?>
<!-- Generator: Adobe Illustrator 27.7.0, SVG Export Plug-In . SVG Version: 6.00 Build 0)  -->
<svg version="1.1" xmlns="http://www.w3.org/2000/svg" viewBox="0 0 48 48" height="48" width="48">
<style type="text/css">
	.st1{fill:none;stroke:#000000;stroke-miterlimit:10;}
</style>
<g id="Layer_2">
	<path class="st1" d="M39.5,16.5c0,5.36-2.82,10.07-7.06,12.72c-2.3,1.45-5.02,2.28-7.94,2.28c-3.08,0-5.94-0.93-8.32-2.52
		C12.15,26.29,9.5,21.7,9.5,16.5c0-8.28,6.72-15,15-15S39.5,8.22,39.5,16.5z"/>
	<path class="st1" d="M2.79,45.5c1.23-7.57,6.43-13.81,13.39-16.52c2.38,1.59,5.24,2.52,8.32,2.52c2.92,0,5.64-0.83,7.94-2.28
		c6.65,2.84,11.57,8.94,12.77,16.28"/>
</g>
</svg>
