<?xml version="1.0" encoding="utf-8"?>
<!-- Generator: Adobe Illustrator 27.7.0, SVG Export Plug-In . SVG Version: 6.00 Build 0)  -->
<svg version="1.1" xmlns="http://www.w3.org/2000/svg"  viewBox="0 0 120 102" height="102" width="120">
<style type="text/css">
	.st1{fill:#47D047;}
</style>
<g id="Layer_2">
	<path class="st1" d="M108.5,0.5h-97c-6.05,0-11,4.95-11,11v79c0,6.05,4.95,11,11,11h97c6.05,0,11-4.95,11-11v-79
		C119.5,5.45,114.55,0.5,108.5,0.5z M60.5,68.5c-9.39,0-17-7.61-17-17s7.61-17,17-17s17,7.61,17,17S69.89,68.5,60.5,68.5z"/>
	<g id="Layer_2_00000080171980496542502220000012200436885274522035_">
		<path class="st1" d="M70,47.64c0,0.24-0.09,0.45-0.23,0.62l-0.12,0.12L58.68,59.15l-0.25,0.13c-0.1,0.04-0.21,0.06-0.33,0.06
			c-0.27,0-0.52-0.11-0.69-0.3l0,0l-6.24-6.06l-0.03-0.02c-0.2-0.17-0.32-0.43-0.32-0.72c0-0.22,0.07-0.42,0.19-0.58l0.19-0.19
			l1.69-1.67l0.28-0.28c0.15-0.1,0.33-0.15,0.52-0.15c0.32,0,0.6,0.16,0.78,0.4l3.63,3.44h0.23l8.01-7.86l0.2-0.2h0
			c0.16-0.12,0.35-0.18,0.56-0.18c0.19,0,0.36,0.05,0.51,0.15l0.25,0.22l1.74,1.55C69.85,47.05,70,47.33,70,47.64z"/>
	</g>
</g>
</svg>
