<?xml version="1.0" encoding="utf-8"?>
<!-- Generator: Adobe Illustrator 27.7.0, SVG Export Plug-In . SVG Version: 6.00 Build 0)  -->
<svg version="1.1" id="Layer_1" xmlns="http://www.w3.org/2000/svg" viewBox="0 0 60 60" height="60" width="60">
<style type="text/css">
	.st0{fill:#2F446D;}
	.st1{fill:#94C11F;}
</style>
<g>
	<path class="st0" d="M51.09,35.49h6.47c-2.12,7.08-7.96,12.16-14.83,12.16c-8.66,0-15.69-8.08-15.69-18.04
		c0-9.97,7.02-18.04,15.69-18.04c7,0,12.93,5.27,14.95,12.55h-6.38c-1.67-3.45-4.88-5.79-8.57-5.79c-5.42,0-9.81,5.05-9.81,11.28
		s4.39,11.28,9.81,11.28C46.27,40.88,49.37,38.73,51.09,35.49z"/>
	<path class="st1" d="M21.15,37.06h5.4c0.06-0.51,0.09-1.04,0.09-1.57c0-7.15-5.44-12.94-12.16-12.94S2.33,28.34,2.33,35.49
		c0,7.15,5.44,12.94,12.16,12.94c5.3,0,9.8-3.6,11.47-8.63h-6.67c-1.07,1.9-2.84,3.14-4.8,3.14c-5.55,0-5.75-5.88-5.75-5.88h11.51
		H21.15z M14.49,28.04c2.82,0,5.18,2.52,5.75,5.88H8.74C9.3,30.56,11.66,28.04,14.49,28.04z"/>
</g>
</svg>
