<?xml version="1.0" encoding="utf-8"?>
<!-- Generator: Adobe Illustrator 27.7.0, SVG Export Plug-In . SVG Version: 6.00 Build 0)  -->
<svg version="1.1" xmlns="http://www.w3.org/2000/svg" viewBox="0 0 60 60" height="60" width="60">
<style type="text/css">
	.st1{fill:#0C2074;}
	.st2{fill:#0075C9;}
</style>
<g id="Layer_2">
	<g>
		<path class="st1" d="M45.36,24.55c0.04-1.13,0.02-2.27-0.08-3.4C35.16,22.01,20.95,28.51,7.79,39.1c-1.49,1.2-2.92,2.41-4.28,3.63
			h0.84c0.25-0.19,0.48-0.4,0.73-0.61c13.85-11.13,28.97-17.61,39.25-17.61C44.67,24.51,45.02,24.53,45.36,24.55z"/>
		<path class="st1" d="M56.55,24.09c-1.45-1.49-3.51-2.37-5.98-2.77c0.17,1.45,0.25,2.91,0.27,4.37c1.15,0.47,2.2,1.18,3.07,2.06
			c1.87,1.91,2.71,4.53,2.52,7.79c-0.13,2.22-0.74,4.64-1.78,7.2h0.55c2.23-4.07,3.55-7.89,3.76-11.21
			C59.15,28.41,58.33,25.91,56.55,24.09z"/>
		<path class="st2" d="M48.24,15.56c-0.9-2.65-2.22-4.01-3.92-4.01h-0.02c-3.11,0-6.99,4.58-10.85,12.49
			c0.67-0.25,1.34-0.48,1.99-0.71c2.69-4.53,5.25-7.2,7.1-7.2h0.17c1.03,0.1,1.8,1.09,2.23,2.96c1.15,4.81-0.11,14.25-2.92,24.2
			c2.16,0.13,4.05,0.67,5.63,1.57C49.83,32.46,50.21,21.34,48.24,15.56z"/>
		<path class="st2" d="M31.32,28.77c-0.88,2.08-1.74,4.32-2.6,6.72c-0.84,2.37-1.62,4.79-2.35,7.24h0.82
			c1.16-3.76,2.52-7.46,4.07-11.08c0.52-1.18,1.03-2.29,1.55-3.38C32.32,28.43,31.82,28.58,31.32,28.77z"/>
	</g>
</g>
</svg>
