<?xml version="1.0" encoding="utf-8"?>
<!-- Generator: Adobe Illustrator 27.7.0, SVG Export Plug-In . SVG Version: 6.00 Build 0)  -->
<svg version="1.1" xmlns="http://www.w3.org/2000/svg" viewBox="0 0 60 60" height="60" width="60">
<style type="text/css">
	.st1{fill:#1E4AA0;}
</style>
<g id="Layer_2">
	<g>
		<path class="st1" d="M54.79,15.41c0-0.75,0.6-1.35,1.35-1.35s1.35,0.6,1.35,1.35c0,0.75-0.6,1.35-1.35,1.35l0,0
			C55.4,16.77,54.79,16.16,54.79,15.41z M57.15,15.41c0.03-0.58-0.4-1.04-0.98-1.07c-0.58-0.03-1.04,0.4-1.07,0.98
			c0,0.03,0,0.09,0,0.12c-0.03,0.58,0.4,1.04,0.98,1.07s1.04-0.4,1.07-0.98C57.15,15.5,57.15,15.44,57.15,15.41z M55.63,14.64h0.58
			c0.37,0,0.58,0.12,0.58,0.46c0.03,0.2-0.14,0.4-0.35,0.4c-0.03,0-0.06,0-0.06,0l0.4,0.66h-0.29l-0.43-0.63h-0.17v0.66H55.6
			L55.63,14.64z M55.92,15.3h0.26c0.17,0,0.32-0.03,0.32-0.23c0-0.2-0.17-0.2-0.35-0.2h-0.26L55.92,15.3z"/>
		<polygon class="st1" points="17.39,33.53 8.37,33.53 8.37,26.73 13.79,26.73 11.86,23.13 8.37,23.13 8.37,17.72 19.98,17.72 
			19.98,14.06 2.5,14.06 2.5,37.18 19.35,37.18 		"/>
		<polygon class="st1" points="29.48,46.28 42.21,23.13 35.99,23.13 27.75,38.51 19.98,23.13 13.53,23.13 25.82,46.28 		"/>
		<path class="st1" d="M40.22,13.72c-8.49,0-14.6,4.9-14.6,11.92c0,3.23,1.01,5.99,3.05,8.06l3.2-6.02
			c-0.12-0.69-0.17-1.35-0.17-2.04c0-4.92,2.99-8.38,8.49-8.38s8.49,2.97,8.49,8.38c0,5.13-3.8,8.35-8.49,8.35
			c-0.75,0-1.47-0.06-2.19-0.2l-1.87,3.4c1.35,0.23,2.71,0.32,4.09,0.32c8.06,0,14.57-4,14.57-11.92S48.69,13.72,40.22,13.72z"/>
	</g>
</g>
</svg>
