<?xml version="1.0" encoding="utf-8"?>
<!-- Generator: Adobe Illustrator 27.7.0, SVG Export Plug-In . SVG Version: 6.00 Build 0)  -->
<svg version="1.1" xmlns="http://www.w3.org/2000/svg" viewBox="0 0 60 60" height="60" width="60">
<style type="text/css">
	.st1{fill:#FF6600;}
</style>
<g id="Layer_2">
	<path class="st1" d="M30.64,26.37c-1.22,0-1.46,0.94-1.46,1.81v3.23h2.92v-3.23C32.1,27.27,31.86,26.37,30.64,26.37z M30.64,26.37
		c-1.22,0-1.46,0.94-1.46,1.81v3.23h2.92v-3.23C32.1,27.27,31.86,26.37,30.64,26.37z M30.64,26.37c-1.22,0-1.46,0.94-1.46,1.81v3.23
		h2.92v-3.23C32.1,27.27,31.86,26.37,30.64,26.37z M30.64,26.37c-1.22,0-1.46,0.94-1.46,1.81v3.23h2.92v-3.23
		C32.1,27.27,31.86,26.37,30.64,26.37z M2.5,2.5v55h55v-55H2.5z M13.74,20.18h-0.48c-0.37-0.03-0.74,0.1-1.02,0.35
		c-0.24,0.3-0.36,0.69-0.32,1.07v3.19h1.82v2.09h-1.82v13.59h-2.6V26.88H7.83v-2.09h1.49V21.2c0-1.14,0.16-1.89,0.67-2.4
		c0.52-0.51,1.66-0.75,2.8-0.75h0.95V20.18z M17.13,40.47h-2.6V24.79h2.6V40.47z M25.76,36.85c0,3.27-1.66,3.9-3.83,3.9
		c-2.16,0-3.82-0.63-3.82-3.19v-2.09h2.64v2.01c0,0.51,0.08,1.3,1.18,1.3c1.11,0,1.19-0.79,1.19-1.85c0-1.7-0.2-1.9-1.9-3.31
		l-0.67-0.56c-2.32-1.97-2.32-3.42-2.32-4.37v-0.31c0.04-2.96,1.42-3.71,3.66-3.71c2.25,0,3.67,0.95,3.67,2.8v2.36h-2.52v-1.45
		c0-1.11-0.12-1.78-1.11-1.78c-0.98,0-1.06,0.63-1.06,1.74c0,1.26,0.16,1.49,2.13,3.23c2.28,2.01,2.72,2.6,2.76,5V36.85z
		 M34.62,33.5h-5.44v3.39c0,1.06,0.4,1.81,1.46,1.81c1.07,0,1.46-0.75,1.46-1.81v-1.5h2.52v1.26c0,2.88-1.61,4.02-4.02,4.02
		c-2.4,0-4.02-1.38-4.02-4.02v-7.92c0-2.92,1.3-4.1,4.02-4.1c2.64,0,4.02,1.18,4.02,4.06V33.5z M40.77,27.35
		c-0.61-0.03-1.22,0.12-1.74,0.43c-0.47,0.32-0.74,0.91-0.74,1.74v10.95h-2.57V24.79h2.37v1.62l0.04-0.08
		c0.71-1.42,1.3-1.7,2.64-1.74V27.35z M43.92,40.47l-2.44-15.68h2.64l1.73,12.85l1.7-12.85h2.68l-2.49,15.68H43.92z M52.83,40.47
		h-2.88V37.6h2.88V40.47z M30.64,26.37c-1.22,0-1.46,0.94-1.46,1.81v3.23h2.92v-3.23C32.1,27.27,31.86,26.37,30.64,26.37z
		 M30.64,26.37c-1.22,0-1.46,0.94-1.46,1.81v3.23h2.92v-3.23C32.1,27.27,31.86,26.37,30.64,26.37z M30.64,26.37
		c-1.22,0-1.46,0.94-1.46,1.81v3.23h2.92v-3.23C32.1,27.27,31.86,26.37,30.64,26.37z"/>
</g>
</svg>
