<?xml version="1.0" encoding="utf-8"?>
<!-- Generator: Adobe Illustrator 27.7.0, SVG Export Plug-In . SVG Version: 6.00 Build 0)  -->
<svg version="1.1" id="Layer_4" xmlns="http://www.w3.org/2000/svg" 
	 viewBox="0 0 1080 273" height="273" width="1080" >
<style type="text/css">
	.st0{fill:#F1F2F2;}
	.st1{fill:#002140;}
	.st2{fill:#B6CCCC;stroke:#003948;stroke-width:3;stroke-miterlimit:10;}
	.st3{fill:none;stroke:#003948;stroke-width:3;stroke-miterlimit:10;}
	.st4{fill:#FFDA7E;stroke:#003948;stroke-width:3;stroke-miterlimit:10;}
	.st5{fill:#FFFFFF;stroke:#003948;stroke-width:3;stroke-miterlimit:10;}
	.st6{fill:none;stroke:#003948;stroke-width:3;stroke-miterlimit:10;stroke-dasharray:8.4,4.2;}
	.st7{fill:#D5D6D5;stroke:#003948;stroke-width:3;stroke-miterlimit:10;}
	.st8{fill:#FFFFFF;stroke:#003948;stroke-width:3;stroke-linejoin:round;stroke-miterlimit:10;}
	.st9{fill:#D5D6D5;stroke:#003948;stroke-width:3;stroke-linejoin:round;stroke-miterlimit:10;}
	.st10{fill:#B6CCCC;stroke:#003948;stroke-width:3;stroke-linecap:round;stroke-linejoin:round;stroke-miterlimit:10;}
	.st11{fill:#B3B5B4;stroke:#003948;stroke-width:3;stroke-miterlimit:10;}
	.st12{fill:#003948;stroke:#003948;stroke-miterlimit:10;}
	.st13{fill:#F46E7C;stroke:#003948;stroke-width:3;stroke-miterlimit:10;}
</style>
<g>
	<circle class="st0" cx="138.5" cy="115.5" r="12"/>
	<circle class="st0" cx="341" cy="68" r="10"/>
	<circle class="st0" cx="166" cy="106" r="6"/>
	<path class="st0" d="M104,254c-2.64-8.64-6-23.58-4-42c0.95-8.78,3.13-26.81,16-45c14.89-21.06,34.8-29.17,42-32
		c7.11-2.79,25.78-9.83,49.5-5.5c13.05,2.38,22.94,7.36,29,11c4.36-6.49,21.57-30.45,55-40c33.54-9.58,60.9,1.79,68,5
		c2.5-4.56,12.66-21.77,34-29c30.81-10.44,56.95,9.39,59,11c8.46-9.57,25.41-26.18,52-37c8.54-3.48,45.52-17.51,90-5
		c8.65,2.43,38,11.08,62,37c2.59,2.79,4.61,5.25,6,7c5.45-3.17,21.19-11.34,42-9c28.17,3.17,44.09,23.2,47,27
		c3.67,4.67,7.33,9.33,11,14c6.31-3.31,17.04-7.91,31-9c6.3-0.49,30.95-2.04,53,15c12.17,9.41,18.67,20.72,22,28
		c4.04-4.43,16.7-17.14,37-20c24.52-3.45,42.55,9.95,48,14c14.82,11.02,21.16,24.67,24,31c3.34,7.43,12.78,28.44,5,52
		c-3.25,9.83-8.42,16.85-12,21C681.67,253.67,392.83,253.83,104,254z"/>
	<rect x="0" y="252" class="st1" width="1080" height="4"/>
	<path class="st2" d="M171.5,209.5h-83c-2.75,0-5-2.25-5-5v-5c0-2.75,2.25-5,5-5h83c2.75,0,5,2.25,5,5v5
		C176.5,207.25,174.25,209.5,171.5,209.5z"/>
	<path class="st3" d="M163.5,194.5h-67v-12.61c0-5.17,4.23-9.39,9.39-9.39h48.21c5.17,0,9.39,4.23,9.39,9.39V194.5z"/>
	<path class="st4" d="M149.5,177.5h-38c-0.55,0-1-0.45-1-1v-7c0-0.55,0.45-1,1-1h38c0.55,0,1,0.45,1,1v7
		C150.5,177.05,150.05,177.5,149.5,177.5z"/>
	<path class="st4" d="M162.5,254.5h-65c-0.55,0-1-0.45-1-1l-8-43c0-0.55,0.45-1,1-1h82c0.55,0,1,0.45,1,1l-9,43
		C163.5,254.05,163.05,254.5,162.5,254.5z"/>
	<path class="st5" d="M130,247.5L130,247.5c-1.93,0-3.5-1.57-3.5-3.5v-24c0-1.93,1.57-3.5,3.5-3.5l0,0c1.93,0,3.5,1.57,3.5,3.5v24
		C133.5,245.93,131.93,247.5,130,247.5z"/>
	<path class="st5" d="M113.05,247.2l-0.4,0.08c-1.78,0.33-3.51-0.85-3.84-2.63l-4.49-23.99c-0.33-1.78,0.85-3.51,2.63-3.84l0.4-0.08
		c1.78-0.33,3.51,0.85,3.84,2.63l4.49,23.99C116.02,245.13,114.83,246.86,113.05,247.2z"/>
	<path class="st5" d="M146.95,247.2l0.4,0.08c1.78,0.33,3.51-0.85,3.84-2.63l4.49-23.99c0.33-1.78-0.85-3.51-2.63-3.84l-0.4-0.08
		c-1.78-0.33-3.51,0.85-3.84,2.63l-4.49,23.99C143.98,245.13,145.17,246.86,146.95,247.2z"/>
	<path class="st4" d="M237.96,254.5h-45.92c-3.6,0-6.54-2.94-6.54-6.54v-81.92c0-3.6,2.94-6.54,6.54-6.54h45.92
		c3.6,0,6.54,2.94,6.54,6.54v81.92C244.5,251.56,241.56,254.5,237.96,254.5z"/>
	<line class="st3" x1="228.5" y1="215.5" x2="228.5" y2="247.5"/>
	<line class="st3" x1="234.5" y1="233.5" x2="234.5" y2="247.5"/>
	<g>
		<g>
			<line class="st3" x1="220.5" y1="195.5" x2="220.5" y2="200.5"/>
			<line class="st6" x1="220.5" y1="204.7" x2="220.5" y2="240.4"/>
			<line class="st3" x1="220.5" y1="242.5" x2="220.5" y2="247.5"/>
		</g>
	</g>
	<circle class="st7" cx="228.5" cy="178.5" r="9"/>
	<rect x="260.5" y="163.5" class="st5" width="123" height="89"/>
	<rect x="198.5" y="159.5" class="st7" width="11" height="95"/>
	<rect x="273.5" y="203.5" class="st7" width="39" height="39"/>
	<rect x="574.5" y="187.5" class="st8" width="34" height="67"/>
	<rect x="584.5" y="157.5" class="st8" width="34" height="9"/>
	<polygon class="st8" points="608.5,187.5 574.5,187.5 584.5,166.5 618.5,166.5 	"/>
	<rect x="619.5" y="141.5" class="st4" width="79" height="113"/>
	<polygon class="st9" points="628.5,187.5 608.5,187.5 618.5,166.5 	"/>
	<rect x="698.5" y="141.5" class="st7" width="28" height="113"/>
	<polygon class="st7" points="725,254.5 698.5,254.5 711.75,240 	"/>
	<rect x="581.5" y="195.5" class="st7" width="21" height="15"/>
	<rect x="607.5" y="187.5" class="st9" width="21" height="67"/>
	<rect x="383.5" y="146.5" class="st7" width="157" height="106"/>
	<rect x="448.5" y="185.5" class="st5" width="67" height="46"/>
	<rect x="407.5" y="185.5" class="st5" width="41" height="67"/>
	<rect x="260.5" y="146.5" class="st4" width="123" height="17"/>
	<path class="st2" d="M289,191.5L289,191.5c-5.25,0-9.5-4.25-9.5-9.5v-18.5h19V182C298.5,187.25,294.25,191.5,289,191.5z"/>
	<rect x="741.5" y="117.5" class="st8" width="87" height="113"/>
	<path class="st5" d="M308,191.5L308,191.5c-5.25,0-9.5-4.25-9.5-9.5v-18.5h19V182C317.5,187.25,313.25,191.5,308,191.5z"/>
	<path class="st10" d="M754,148.5h-3c-5.25,0-9.5-4.25-9.5-9.5v-21.5h22V139C763.5,144.25,759.25,148.5,754,148.5z"/>
	<path class="st5" d="M776,148.5h-3c-5.25,0-9.5-4.25-9.5-9.5v-21.5h22V139C785.5,144.25,781.25,148.5,776,148.5z"/>
	<path class="st10" d="M798,148.5h-3c-5.25,0-9.5-4.25-9.5-9.5v-21.5h22V139C807.5,144.25,803.25,148.5,798,148.5z"/>
	<path class="st5" d="M819,148.5h-2c-5.25,0-9.5-4.25-9.5-9.5v-21.5h21V139C828.5,144.25,824.25,148.5,819,148.5z"/>
	<path class="st2" d="M327,191.5L327,191.5c-5.25,0-9.5-4.25-9.5-9.5v-18.5h19V182C336.5,187.25,332.25,191.5,327,191.5z"/>
	<path class="st5" d="M346,191.5L346,191.5c-5.25,0-9.5-4.25-9.5-9.5v-18.5h19V182C355.5,187.25,351.25,191.5,346,191.5z"/>
	<path class="st2" d="M365,191.5L365,191.5c-5.25,0-9.5-4.25-9.5-9.5v-18.5h19V182C374.5,187.25,370.25,191.5,365,191.5z"/>
	<path class="st5" d="M383.5,163.5v27.99c-5.02-0.26-9-4.41-9-9.49v-18.5H383.5z"/>
	<path class="st2" d="M388,166.5L388,166.5c-10.22,0-18.5-8.28-18.5-18.5v-1.5h37v1.5C406.5,158.22,398.22,166.5,388,166.5z"/>
	<polygon class="st2" points="406.5,145.5 369.5,145.5 399.5,85.5 423.5,85.5 	"/>
	<path class="st5" d="M425,166.5L425,166.5c-10.22,0-18.5-8.28-18.5-18.5v-1.5h37v1.5C443.5,158.22,435.22,166.5,425,166.5z"/>
	<polygon class="st5" points="443.5,145.5 406.5,145.5 423.5,85.5 447.5,85.5 	"/>
	<path class="st2" d="M462,166.5L462,166.5c-10.22,0-18.5-8.28-18.5-18.5v-1.5h37v1.5C480.5,158.22,472.22,166.5,462,166.5z"/>
	<polygon class="st2" points="480.5,145.5 443.5,145.5 447.5,85.5 475.5,85.5 	"/>
	<path class="st5" d="M499,166.5L499,166.5c-10.22,0-18.5-8.28-18.5-18.5v-1.5h37v1.5C517.5,158.22,509.22,166.5,499,166.5z"/>
	<polygon class="st5" points="517.5,145.5 480.5,145.5 475.5,85.5 499.5,85.5 	"/>
	<path class="st2" d="M536,166.5L536,166.5c-10.22,0-18.5-8.28-18.5-18.5v-1.5h37v1.5C554.5,158.22,546.22,166.5,536,166.5z"/>
	<polygon class="st10" points="554.5,145.5 517.5,145.5 499.5,85.5 522.5,85.5 	"/>
	<path class="st5" d="M270,191.5L270,191.5c-5.25,0-9.5-4.25-9.5-9.5v-18.5h19V182C279.5,187.25,275.25,191.5,270,191.5z"/>
	<rect x="326.5" y="202.5" class="st3" width="25" height="1"/>
	<rect x="268.5" y="154.5" class="st3" width="3" height="1"/>
	<rect x="276.5" y="154.5" class="st3" width="3" height="1"/>
	<rect x="284.5" y="154.5" class="st3" width="3" height="1"/>
	<rect x="330.5" y="154.5" class="st3" width="40" height="1"/>
	<rect x="431.5" y="218.5" class="st3" width="9" height="1"/>
	<path class="st11" d="M828.5,117.5h-87V104c0-4.68,3.83-8.5,8.5-8.5h70c4.67,0,8.5,3.82,8.5,8.5V117.5z"/>
	<rect x="774.5" y="105.5" class="st3" width="6" height="1"/>
	<rect x="784.5" y="105.5" class="st3" width="15" height="1"/>
	<path class="st11" d="M820,254.5h-70c-4.67,0-8.5-3.82-8.5-8.5v-15.5h87V246C828.5,250.68,824.67,254.5,820,254.5z"/>
	<rect x="775.5" y="243.5" class="st3" width="18" height="1"/>
	
		<rect x="280.95" y="217.35" transform="matrix(0.7071 -0.7071 0.7071 0.7071 -69.5993 266.897)" class="st3" width="12.85" height="0.23"/>
	
		<rect x="278.98" y="223.3" transform="matrix(0.7071 -0.7071 0.7071 0.7071 -72.3331 272.2083)" class="st3" width="26.87" height="0.23"/>
	
		<rect x="468.23" y="200.59" transform="matrix(0.7071 -0.7071 0.7071 0.7071 -2.5915 396.5794)" class="st3" width="18.38" height="1.65"/>
	
		<rect x="464.95" y="207.09" transform="matrix(0.7071 -0.7071 0.7071 0.7071 -5.8697 401.6652)" class="st3" width="33.94" height="1.65"/>
	
		<rect x="755.99" y="177.43" transform="matrix(0.7071 -0.7071 0.7071 0.7071 100.9719 599.1035)" class="st3" width="35.36" height="0.47"/>
	
		<rect x="752.08" y="188.05" transform="matrix(0.7071 -0.7071 0.7071 0.7071 97.062 610.6642)" class="st3" width="67.18" height="0.23"/>
	<rect x="326.5" y="218.5" class="st3" width="52" height="1"/>
	<rect x="326.5" y="225.5" class="st3" width="52" height="1"/>
	<rect x="326.5" y="235.5" class="st3" width="40" height="1"/>
	<line class="st3" x1="711.5" y1="141.5" x2="711.5" y2="240.5"/>
	<path class="st3" d="M679.5,157v23.55c0,11.52-9.43,20.95-20.95,20.95h-2.09c-11.52,0-20.95-9.43-20.95-20.95V157.5"/>
	<polygon class="st10" points="610.5,136.5 591.5,121.5 571.5,136.5 571.5,95.5 610.5,95.5 	"/>
	<path class="st4" d="M592.27,40.66l1.65-4.62c0.91-2.55,4.7-1.89,4.68,0.83l-0.03,4.91c-0.01,2.26,2.82,3.3,4.27,1.55l3.41-4.1
		c1.68-2.02,5.24,0.28,3.99,2.31l-1.85,5c-0.79,2.12,1.52,4.06,3.48,2.92l4.24-2.48c2.34-1.37,4.81,1.57,3.06,3.64l-3.17,3.74
		c-1.46,1.73,0.04,4.34,2.27,3.93l4.83-0.88c2.67-0.48,3.98,3.12,1.63,4.47l-4.26,2.43c-1.97,1.12-1.44,4.09,0.79,4.47l4.84,0.83
		c2.67,0.46,2.67,4.3,0,4.76l-4.84,0.83c-2.23,0.38-2.76,3.35-0.79,4.47l4.26,2.43c2.36,1.34,1.04,4.95-1.63,4.47l-4.83-0.88
		c-2.23-0.4-3.74,2.21-2.27,3.93l3.17,3.74c1.75,2.07-0.71,5.01-3.06,3.64l-4.24-2.48c-1.96-1.14-4.27,0.8-3.48,2.92l1.7,4.6
		c0.94,2.54-2.39,4.47-4.12,2.38l-3.14-3.78c-1.45-1.74-4.28-0.71-4.27,1.55l0.03,4.91c0.01,2.71-3.77,3.38-4.68,0.83l-1.65-4.62
		c-0.76-2.13-3.78-2.13-4.54,0l-1.65,4.62c-0.91,2.55-4.7,1.89-4.68-0.83l0.03-4.91c0.01-2.26-2.82-3.3-4.27-1.55l-3.14,3.78
		c-1.73,2.09-5.06,0.17-4.12-2.38l1.7-4.6c0.79-2.12-1.52-4.06-3.48-2.92l-4.24,2.48c-2.34,1.37-4.81-1.57-3.06-3.64l3.17-3.74
		c1.46-1.73-0.04-4.34-2.27-3.93l-4.83,0.88c-2.67,0.48-3.98-3.12-1.63-4.47l4.26-2.43c1.97-1.12,1.44-4.09-0.79-4.47l-4.84-0.83
		c-2.67-0.46-2.67-4.3,0-4.76l4.84-0.83c2.23-0.38,2.76-3.35,0.79-4.47l-4.26-2.43c-2.36-1.34-1.04-4.95,1.63-4.47l4.83,0.88
		c2.23,0.4,3.74-2.21,2.27-3.93l-3.17-3.74c-1.75-2.07,0.71-5.01,3.06-3.64l4.24,2.48c1.96,1.14,4.27-0.8,3.48-2.92l-1.7-4.6
		c-0.94-2.54,2.39-4.47,4.12-2.38l3.14,3.78c1.45,1.74,4.28,0.71,4.27-1.55l-0.03-4.91c-0.01-2.71,3.77-3.38,4.68-0.83l1.65,4.62
		C588.49,42.79,591.51,42.79,592.27,40.66z"/>
	<path class="st3" d="M565.5,71.5c0-13.81,11.19-25,25-25c7.38,0,14.01,3.19,18.58,8.28"/>
	<path class="st3" d="M572.78,89.13c-1.52-1.53-2.84-3.25-3.93-5.13"/>
	<path class="st3" d="M615.5,71.5c0,1.38-0.11,2.74-0.33,4.07c-1.94,11.87-12.25,20.93-24.67,20.93c-5.36,0-10.33-1.69-14.41-4.57"
		/>
	<path class="st3" d="M610.92,57.08c1.65,2.33,2.9,4.94,3.68,7.76"/>
	<g>
		<path class="st12" d="M572.22,78.69V66.56h3.21l2.52,4.45c0.72,1.28,1.44,2.79,1.98,4.16h0.05c-0.18-1.6-0.23-3.24-0.23-5.06
			v-3.55h2.52v12.14h-2.88l-2.59-4.68c-0.72-1.3-1.51-2.86-2.11-4.29l-0.05,0.02c0.07,1.6,0.11,3.31,0.11,5.29v3.66H572.22z"/>
		<path class="st12" d="M591.86,73.56h-4.46v2.88h4.99v2.25h-7.74V66.56h7.49v2.25h-4.74v2.52h4.46V73.56z"/>
		<path class="st12" d="M596.34,78.69l-2.88-12.14h2.93l0.92,5.01c0.27,1.44,0.52,3.01,0.72,4.23h0.04c0.2-1.31,0.49-2.77,0.79-4.27
			l1.03-4.97h2.92l0.97,5.11c0.27,1.42,0.47,2.72,0.65,4.07h0.04c0.18-1.35,0.45-2.77,0.7-4.21l0.99-4.97h2.79l-3.13,12.14h-2.97
			l-1.03-5.22c-0.23-1.22-0.43-2.36-0.58-3.75h-0.04c-0.22,1.37-0.41,2.52-0.7,3.75l-1.15,5.22H596.34z"/>
	</g>
	<polygon class="st4" points="654.2,88.57 663,71 685.65,71 695,88 695,124.29 693,126 656.38,126 654,123 	"/>
	<circle class="st5" cx="674.5" cy="103.5" r="14"/>
	<g>
		<path class="st12" d="M674.11,101.88c0,2.45-1.55,3.73-3.24,3.73c-1.78,0-3.19-1.33-3.19-3.53c0-2.09,1.28-3.67,3.28-3.67
			C672.98,98.4,674.11,99.88,674.11,101.88z M669.72,102c0,1.22,0.41,2.11,1.21,2.11c0.77,0,1.15-0.79,1.15-2.11
			c0-1.19-0.32-2.11-1.17-2.11C670.1,99.9,669.72,100.83,669.72,102z M671.02,110.5l6.72-12.1h1.48l-6.73,12.1H671.02z
			 M682.54,106.74c0,2.45-1.55,3.73-3.24,3.73c-1.76,0-3.17-1.33-3.19-3.53c0-2.09,1.28-3.67,3.28-3.67
			C681.41,103.27,682.54,104.74,682.54,106.74z M678.17,106.87c-0.02,1.22,0.4,2.11,1.19,2.11c0.77,0,1.15-0.79,1.15-2.11
			c0-1.19-0.31-2.11-1.15-2.11C678.53,104.76,678.17,105.7,678.17,106.87z"/>
	</g>
	<line class="st3" x1="674.11" y1="55.23" x2="674.11" y2="77.4"/>
	<circle class="st13" cx="573.5" cy="233.5" r="20"/>
	<path class="st5" d="M556.5,200.5c0.42-0.15,5.11-1.79,9,1c3.48,2.5,4.83,7.48,3,12c-0.73,0-5.49-0.06-9-4
		C556.14,205.74,556.44,201.26,556.5,200.5z"/>
	<path class="st4" d="M981.5,188.92v48.58c0,0.55-0.45,1-1,1h-7.04c-0.51-7.82-7.02-14-14.96-14s-14.45,6.18-14.96,14h-58.08
		c-0.51-7.82-7.02-14-14.96-14s-14.45,6.18-14.96,14h-9.04c-0.55,0-1-0.45-1-1v-18h89v-52h24.19L981.5,188.92z"/>
	<path class="st2" d="M934.5,144.5v75h-89v-75c0-0.55,0.45-1,1-1h87C934.05,143.5,934.5,143.95,934.5,144.5z"/>
	<polygon class="st8" points="918.5,173 907.84,182.5 895.5,193.5 895.5,182.5 845.5,182.5 845.5,162.5 895.5,162.5 895.5,152.5 
		906.72,162.5 	"/>
	<rect x="857.5" y="196.5" class="st3" width="26" height="1"/>
	<rect x="858.5" y="204.5" class="st3" width="16" height="1"/>
	<rect x="973.5" y="217.5" class="st3" width="8" height="4"/>
	<polygon class="st8" points="974.5,209.5 942.5,209.5 942.5,175.5 954.71,175.5 974.5,196.5 	"/>
	<circle class="st11" cx="870.5" cy="239.5" r="15"/>
	<circle class="st8" cx="870.5" cy="239.5" r="5"/>
	<circle class="st11" cx="958.5" cy="239.5" r="15"/>
	<circle class="st8" cx="958.5" cy="239.5" r="5"/>
</g>
</svg>
