<?xml version="1.0" encoding="utf-8"?>
<!-- Generator: Adobe Illustrator 27.7.0, SVG Export Plug-In . SVG Version: 6.00 Build 0)  -->
<svg version="1.1" id="Layer_1" xmlns="http://www.w3.org/2000/svg"  viewBox="0 0 300 300" height="300" width="300">
<style type="text/css">
	.st0{fill-rule:evenodd;clip-rule:evenodd;fill:#FFFFFF;}
	.st1{fill-rule:evenodd;clip-rule:evenodd;fill:#000000;}
	.st2{fill-rule:evenodd;clip-rule:evenodd;fill:#000000;}
</style>
<g>
	<rect class="st0" width="300" height="300"/>
	<g>
		<path class="st1" d="M245.42,164.32c-2.48,3.42-5.61,6.13-9.38,8.11c-3.77,1.99-7.89,3.33-12.36,4.02
			c-4.46,0.7-8.68,1.04-12.65,1.04h-2.68c-0.8,0-1.59-0.05-2.38-0.15v0.89c0,2.28,0.37,4.27,1.12,5.95
			c0.74,1.69,1.69,3.08,2.83,4.17c1.14,1.09,2.43,1.91,3.87,2.46c1.44,0.55,2.85,0.82,4.24,0.82c4.07,0,7.54-0.94,10.42-2.83
			c2.88-1.88,5.31-4.12,7.29-6.7c5.06,2.58,7.59,5.71,7.59,9.38c0,2.08-0.59,3.87-1.79,5.36c-1.19,1.49-2.48,2.73-3.87,3.72
			c-2.18,1.49-4.99,2.88-8.41,4.17c-3.42,1.29-7.96,1.94-13.62,1.94c-5.46,0-10.03-0.82-13.7-2.46c-3.67-1.64-6.65-3.82-8.93-6.55
			c-2.28-2.73-3.92-5.88-4.91-9.45c-0.99-3.57-1.49-7.29-1.49-11.16c0-6.05,0.94-11.83,2.83-17.34c1.88-5.51,4.56-10.29,8.04-14.37
			c3.47-4.07,7.74-7.32,12.8-9.75c5.06-2.43,10.82-3.65,17.27-3.65c3.47,0,6.55,0.5,9.23,1.49c2.68,0.99,4.93,2.33,6.77,4.02
			c1.84,1.69,3.22,3.67,4.17,5.95c0.94,2.28,1.42,4.76,1.42,7.44C249.14,156.41,247.9,160.9,245.42,164.32 M229.64,148.84
			c-0.99-1.24-2.73-1.86-5.21-1.86c-4.27,0-7.87,1.69-10.79,5.06c-2.93,3.38-5.04,7.84-6.33,13.4c0.89,0.1,1.66,0.15,2.31,0.15h2.16
			c2.28,0,4.56-0.25,6.85-0.75c2.28-0.49,4.37-1.26,6.25-2.31c1.88-1.04,3.4-2.33,4.54-3.87c1.14-1.54,1.71-3.35,1.71-5.43
			C231.13,151.54,230.63,150.08,229.64,148.84 M183.94,194.39c2.35,4.28,4.56,8.54,7.14,10.22c-3.31,0.01-12.21,0-13.01,0
			c-4.64,0-9.22,0.05-13.27-5.13c-2.32-3.5-14.81-27.92-15.72-29.92l-5.48,32.84c-0.18,1.23-1,2.23-2.23,2.23h-15.8
			c-1.23,0-2.23-1-2.23-2.23l17.24-102.94c1.19-0.2,6.64-0.56,7.63-0.56c3.97,0,6.8,0.97,8.48,2.9c1.69,1.94,2.28,3.93,2.28,6.81
			c0,0.6-0.26,3.35-0.35,3.95l-8.35,49.9c0.63-1.22,20.86-24.71,20.86-24.71c1.79-1.98,3.55-3.37,5.28-4.17
			c1.74-0.79,3.8-1.27,6.18-1.19c2.58,0,4.74,0.5,6.48,1.49c1.73,0.99,3.35,2.28,4.84,3.87l-25.46,28.13
			C168.46,165.88,181.08,189.74,183.94,194.39 M118.15,121.67c-3.18,0-5.61-0.99-7.29-2.98c-1.69-1.98-2.53-4.32-2.53-7
			c0-4.17,1.19-7.34,3.57-9.53c2.38-2.18,5.21-3.27,8.48-3.27c3.17,0,5.61,0.99,7.29,2.98c1.69,1.99,2.53,4.47,2.53,7.44
			c0,3.87-1.19,6.9-3.57,9.08C124.25,120.58,121.43,121.67,118.15,121.67 M113.39,133.43c4.07,0,6.97,0.97,8.71,2.9
			c1.74,1.94,2.81,4.15,2.61,7.22c-0.04,0.59-0.43,2.98-0.52,3.57l-9.29,55.26c-0.2,1.2-1,2.23-2.23,2.23H97.02
			c-1.23,0-2.23-1-2.23-2.23l11.43-68.34C107.41,133.86,112.39,133.43,113.39,133.43 M92.44,162.48l-6.68,39.92
			c-0.18,1.2-1,2.23-2.23,2.23l-15.58,0c-1.23,0-2.28-1.03-2.28-2.26l7.11-42.46c0.02-0.18,0.05-0.37,0.07-0.55
			c0.1-0.99,0.35-2,0.35-3c0-2.28-0.52-4.22-1.56-5.81c-1.04-1.59-3.15-2.38-6.33-2.38c-3.18,0-5.95,1.34-8.34,4.02
			c-1.97,2.22-3.36,4.95-4.17,8.19l-7.1,42.02c-0.21,1.21-1,2.23-2.23,2.23l-15.71-0.01c-1.23,0-2.23-1-2.23-2.23L42.78,99.46
			c1.19-0.2,5.76-0.56,6.75-0.56c4.07,0,7.1,1.05,8.89,2.95c2.97,3.16,2.58,8.41,2.53,9.01c-0.05,0.6-0.13,1.19-0.22,1.79
			l-4.62,27.67c2.28-2.28,4.79-4.27,7.86-5.91c3.08-1.64,6.94-2.46,11.61-2.46c4.47,0,8.09,0.99,10.87,2.98
			c2.78,1.99,4.71,4.52,5.81,7.59c0.99,2.88,1.49,6.05,1.49,9.53c0,1.79-0.23,3.54-0.42,5.27
			C93.12,159.05,92.74,160.79,92.44,162.48"/>
		<path class="st2" d="M247.4,111.77c-1.9,0-3.75,0.23-5.54,0.69v0c-2.92-11-12.57-18.24-23.99-19.08
			c-13.88-1.02-22.22,13.1-22.3,14.47c-12.13-6.68-25.98,2.92-25.45,19.54h0.87c0.75-17.94,16.72-21.19,23.59-16.89
			c-1,2.82-1.6,5.76-1.6,8.95c0,1.19,0.08,2.38,0.22,3.53h0.33c0.09-4.22,0.99-8.19,2.52-11.73c0.35-0.8,0.73-1.57,1.14-2.32h0
			c4.11-7.52,11.28-12.5,19.43-12.5c9.79,0,18.15,7.18,21.51,17.32v0c0.43,1.31,0.79,2.66,1.05,4.06c1.11-0.52,2.25-0.93,3.43-1.22
			c1.49-0.38,3.03-0.57,4.61-0.57c13.17,0,23.85,13.79,23.85,30.8c0,11.37-4.76,21.29-11.86,26.62v0.88
			c0.14-0.08,0.28-0.16,0.42-0.25c8.81-5.43,14.85-16.54,14.85-29.38C274.47,126.51,262.35,111.77,247.4,111.77"/>
	</g>
</g>
</svg>
