<?xml version="1.0" encoding="utf-8"?>
<!-- Generator: Adobe Illustrator 27.7.0, SVG Export Plug-In . SVG Version: 6.00 Build 0)  -->
<svg version="1.1" xmlns="http://www.w3.org/2000/svg" viewBox="0 0 96 96" height="96" width="96">
<style type="text/css">
	.st1{fill:none;stroke:#FFFFFF;stroke-width:2;stroke-miterlimit:10;}
	.st2{fill:#FFFFFF;}
</style>
<g id="Layer_2">
	<path class="st1" d="M73.5,70.5h-52c-2.75,0-5-2.25-5-5v-35c0-2.75,2.25-5,5-5h52c2.75,0,5,2.25,5,5v35
		C78.5,68.25,76.25,70.5,73.5,70.5z"/>
	<rect x="24.5" y="33.5" class="st2" width="2" height="29"/>
	<rect x="30.5" y="33.5" class="st2" width="2" height="29"/>
	<rect x="36.5" y="33.5" class="st2" width="2" height="29"/>
	<rect x="40.5" y="33.5" class="st2" width="2" height="29"/>
	<rect x="48.5" y="33.5" class="st2" width="2" height="29"/>
	<rect x="52.5" y="33.5" class="st2" width="2" height="29"/>
	<rect x="57.5" y="33.5" class="st2" width="2" height="29"/>
	<rect x="64.5" y="33.5" class="st2" width="2" height="29"/>
	<rect x="69.5" y="33.5" class="st2" width="2" height="29"/>
</g>
</svg>
