<?xml version="1.0" encoding="utf-8"?>
<svg version="1.1" xmlns="http://www.w3.org/2000/svg" width="96" height="96" viewBox="0 0 96 96" >
		<path class="st1" d="M58.33,36.3c1.63-0.52,3.37-0.8,5.17-0.8c9.39,0,17,7.61,17,17c0,9.06-7.08,16.46-16,16.97v0.03l-34.27,0.98
			L29.5,70.5c-7.73,0-14-6.27-14-14c0-7.73,6.27-14,14-14c0.54,0,1.08,0.03,1.61,0.09c-0.4-1.29-0.61-2.67-0.61-4.09
			c0-7.73,6.27-14,14-14C51.48,24.5,57.27,29.61,58.33,36.3c-3.41,1.08-6.35,3.22-8.45,6.02" stroke-linecap="round" stroke-miterlimit="10" fill="none" stroke="#FFFFFF" stroke-width="3"/>
		<circle class="st1" cx="35.5" cy="56.5" r="4" fill="none" stroke="#FFFFFF" stroke-width="2"/>
		<circle class="st1" cx="47.5" cy="56.5" r="4" fill="none" stroke="#FFFFFF" stroke-width="2"/>
		<circle class="st1" cx="59.5" cy="56.5" r="4" fill="none" stroke="#FFFFFF" stroke-width="2"/>
</svg>
