<?xml version="1.0" encoding="utf-8"?>
<!-- Generator: Adobe Illustrator 27.7.0, SVG Export Plug-In . SVG Version: 6.00 Build 0)  -->
<svg version="1.1" xmlns="http://www.w3.org/2000/svg" viewBox="0 0 96 96" height="96" width="96">
<style type="text/css">
	.st1{fill:none;stroke:#FFFFFF;stroke-width:3;stroke-miterlimit:10;}
</style>
<g id="Layer_2">
	<path class="st1" d="M65.5,23.5v16h-36v-16c0-0.55,0.45-1,1-1h34C65.05,22.5,65.5,22.95,65.5,23.5z"/>
	<path class="st1" d="M74.5,44.5v19c0,2.75-2.25,5-5,5h-4v-14h-37v14h-3c-2.75,0-5-2.25-5-5v-19c0-2.75,2.25-5,5-5h44
		C72.25,39.5,74.5,41.75,74.5,44.5z"/>
	<path class="st1" d="M65.5,54.5v19c0,0.55-0.45,1-1,1h-35c-0.55,0-1-0.45-1-1v-19H65.5z"/>
	<circle class="st1" cx="63.5" cy="47.5" r="2"/>
	<line class="st1" x1="33.5" y1="61.5" x2="61.5" y2="61.5"/>
	<line class="st1" x1="33.5" y1="67.5" x2="61.5" y2="67.5"/>
</g>
</svg>
