<?xml version="1.0" encoding="utf-8"?>
<!-- Generator: Adobe Illustrator 27.7.0, SVG Export Plug-In . SVG Version: 6.00 Build 0)  -->
<svg version="1.1" xmlns="http://www.w3.org/2000/svg" viewBox="0 0 96 96" height="96" width="96">
<style type="text/css">
	.st1{fill:none;stroke:#000000;stroke-miterlimit:10;}
</style>
<g id="Layer_2">
	<path class="st1" d="M63.5,48.5c0,0.41-0.02,0.81-0.05,1.21c-0.19,2.65-1.03,5.12-2.37,7.25c-0.89,1.44-2.01,2.73-3.31,3.82
		c-1.8,1.5-3.94,2.62-6.29,3.22c-1.27,0.33-2.61,0.5-3.98,0.5c-0.72,0-1.43-0.05-2.12-0.14c-2.48-0.33-4.77-1.22-6.76-2.55
		c-1.71-1.14-3.18-2.6-4.34-4.29c-1.34-1.96-2.25-4.23-2.61-6.68c-0.11-0.77-0.17-1.55-0.17-2.34c0-1.17,0.13-2.32,0.36-3.42
		c0.56-2.53,1.71-4.84,3.29-6.77c1.03-1.23,2.23-2.31,3.57-3.19c2.23-1.47,4.85-2.39,7.67-2.58c0.37-0.03,0.74-0.04,1.11-0.04
		c0.87,0,1.73,0.07,2.56,0.2c2.68,0.43,5.14,1.53,7.2,3.12c0.99,0.76,1.9,1.64,2.69,2.62c1.65,2.04,2.81,4.51,3.3,7.2
		C63.41,46.57,63.5,47.52,63.5,48.5z"/>
	<path d="M91.65,39.15l-12-2l-1.12,0.07c-0.45-1.23-0.97-2.42-1.55-3.58l0.16-0.14l7.78-10.6c0.38-0.39,0.38-1.03,0-1.42
		l-10.61-10.6c-0.39-0.39-1.03-0.39-1.41,0L63,17.95l-0.85,0.97c-1.19-0.59-2.41-1.11-3.67-1.55L56.5,4.5c0-0.55-0.45-1-1-1h-15
		c-0.55,0-1,0.45-1,1l-2,12l0.03,0.53c-1.25,0.4-2.48,0.87-3.66,1.4l-0.93-1.04l-9.19-6.37c-0.39-0.39-1.02-0.39-1.41,0L11.73,21.63
		c-0.39,0.39-0.39,1.03,0,1.41l6.32,10.55c-0.59,1.17-1.12,2.37-1.57,3.61l-0.83-0.05l-11,2c-0.55,0-1,0.45-1,1v15
		c0,0.55,0.45,1,1,1l11.56,2.89c0.47,1.38,1.03,2.73,1.67,4.03l-0.14,0.13l-6.36,9.2c-0.39,0.38-0.39,1.02,0,1.41l10.6,10.61
		c0.39,0.38,1.03,0.38,1.42,0l10.06-6.04c1.31,0.61,2.67,1.15,4.07,1.59L37.5,80.5l2,11c0,0.55,0.45,1,1,1h15c0.55,0,1-0.45,1-1
		l3-12l-0.02-0.24c1.38-0.54,2.71-1.16,3.99-1.87l9.78,7.17c0.39,0.39,1.02,0.39,1.41,0l10.61-10.6c0.39-0.39,0.39-1.03,0-1.42
		l-7.07-9.9l-0.62-0.54c0.59-1.3,1.09-2.64,1.51-4.02l12.56-1.93c0.55,0,1-0.45,1-1v-15C92.65,39.6,92.2,39.15,91.65,39.15z
		 M63.45,49.71c-0.19,2.65-1.03,5.12-2.37,7.25c-0.89,1.44-2.01,2.73-3.31,3.82c-1.8,1.5-3.94,2.62-6.29,3.22
		c-1.27,0.33-2.61,0.5-3.98,0.5c-0.72,0-1.43-0.05-2.12-0.14c-2.48-0.33-4.77-1.22-6.76-2.55c-1.71-1.14-3.18-2.6-4.34-4.29
		c-1.34-1.96-2.25-4.23-2.61-6.68c-0.11-0.77-0.17-1.55-0.17-2.34c0-1.17,0.13-2.32,0.36-3.42c0.56-2.53,1.71-4.84,3.29-6.77
		c1.03-1.23,2.23-2.31,3.57-3.19c2.23-1.47,4.85-2.39,7.67-2.58c0.37-0.03,0.74-0.04,1.11-0.04c0.87,0,1.73,0.07,2.56,0.2
		c2.68,0.43,5.14,1.53,7.2,3.12c0.99,0.76,1.9,1.64,2.69,2.62c1.65,2.04,2.81,4.51,3.3,7.2c0.16,0.93,0.25,1.88,0.25,2.86
		C63.5,48.91,63.48,49.31,63.45,49.71z"/>
</g>
</svg>
