<?xml version="1.0" encoding="utf-8"?>
<!-- Generator: Adobe Illustrator 27.7.0, SVG Export Plug-In . SVG Version: 6.00 Build 0)  -->
<svg version="1.1" id="Layer_1" xmlns="http://www.w3.org/2000/svg" viewBox="0 0 54 54" height="54" width="54">
<style type="text/css">
	.st1{fill:#FFFFFF;}
</style>
<g id="Layer_2_00000152243353196990103250000012082217955802035109_">
	<g>
		<path class="st1" d="M50.78,38.91L28.41,49.28c-0.38,0.39-1.02,0.39-1.41,0L4.22,39.5c-0.39-0.39-0.39-1.03,0-1.41l4.44-2.26
			L26,43.28c0.39,0.39,1.03,0.39,1.41,0l17.98-8.33l5.39,2.55C51.17,37.89,51.17,38.53,50.78,38.91z"/>
		<path class="st1" d="M50.78,27.91L28.41,38.28c-0.38,0.39-1.02,0.39-1.41,0L4.22,28.5c-0.39-0.39-0.39-1.03,0-1.41l4.44-2.26
			L26,32.28c0.39,0.39,1.03,0.39,1.41,0l17.98-8.33l5.39,2.55C51.17,26.89,51.17,27.53,50.78,27.91z"/>
		<path class="st1" d="M26,27.28L3.22,17.5c-0.39-0.39-0.39-1.03,0-1.41L25.58,4.72c0.39-0.39,1.03-0.39,1.41,0L49.78,15.5
			c0.39,0.39,0.39,1.03,0,1.41L27.41,27.28C27.02,27.67,26.39,27.67,26,27.28z"/>
	</g>
</g>
</svg>
