<?xml version="1.0" encoding="utf-8"?>
<!-- Generator: Adobe Illustrator 27.7.0, SVG Export Plug-In . SVG Version: 6.00 Build 0)  -->
<svg version="1.1" xmlns="http://www.w3.org/2000/svg" viewBox="0 0 60 60" height="60" width="60">
<style type="text/css">
	.st1{fill:url(#SVGID_1_);}
	.st2{fill:#FFFFFF;}
</style>
<g id="Layer_3">
	<linearGradient id="SVGID_1_" gradientUnits="userSpaceOnUse" x1="3.5" y1="30" x2="57.5" y2="30">
		<stop  offset="0" style="stop-color:#F7931E"/>
		<stop  offset="0.3779" style="stop-color:#F15A24"/>
		<stop  offset="1" style="stop-color:#F15A24"/>
	</linearGradient>
	<path class="st1" d="M46.5,56.5h-32c-6.05,0-11-4.95-11-11v-31c0-6.05,4.95-11,11-11h32c6.05,0,11,4.95,11,11v31
		C57.5,51.55,52.55,56.5,46.5,56.5z"/>
</g>
<g id="Layer_2">
	<path class="st2" d="M13.86,14.07v25.45c0,0-0.22,5.49,5.4,5.7c4.63,0.17,5.4-2.22,5.4-2.22v-2.89c0,0-1.74,1.05-4.22-0.07
		c0,0-1.18-0.37-1.18-2.89c0-2.52,0-19.23,0-19.23s0.39-3.85-2.14-3.85C14.76,14.07,13.86,14.07,13.86,14.07z"/>
	<path class="st2" d="M33.69,33.93c0,3.67,0,7.34,0,11.01c-0.19,0.07-2.64,0.71-4.44-0.53c-1.86-1.27-1.89-3.43-1.89-3.61
		c0-8.95,0-17.9,0-26.85c0.29-0.06,2.38-0.49,4.24,0.94c1.81,1.39,1.98,3.44,2,3.75c0,4.06,0,8.12,0,12.18
		c2.73-3.09,5.46-6.18,8.18-9.27c2.3,0,4.61,0,6.91,0c-3.11,3.57-6.21,7.14-9.32,10.71c0.47,0.66,1.6,2.24,3.13,4.38
		c2.16,3.01,3.29,4.53,5.24,5.1c0.51,0.15,0.96,0.2,1.25,0.22c-0.03,0.43-0.18,1.71-1.19,2.64c-1.3,1.18-3.48,1.3-5.33,0.17
		C39.38,41.15,36.78,37.55,33.69,33.93z"/>
</g>
</svg>
