<?xml version="1.0" encoding="utf-8"?>
<!-- Generator: Adobe Illustrator 27.7.0, SVG Export Plug-In . SVG Version: 6.00 Build 0)  -->
<svg version="1.1" xmlns="http://www.w3.org/2000/svg" viewBox="0 0 60 60" height="60" width="60">
<style type="text/css">
	.st1{fill:#161615;}
</style>
<g id="Layer_2">
	<polygon class="st1" points="27,18 27,21.94 23.93,21.94 17.25,42 14.22,42 6,21.94 6,42 3,42 3,18 7.83,18 15,37 23,18 	"/>
	<rect x="25" y="25" class="st1" width="3" height="17"/>
	<path class="st1" d="M47,28v14h-3V30c-0.72-1.67-2.25-2.82-4-3c-2.07-0.21-4.1,1-5,3v12h-3V25h3v2c0.64-0.53,2.41-1.86,5-2
		C44.02,24.78,46.64,27.6,47,28z"/>
	<path class="st1" d="M52,19c1,0,2,0,3,0c0,2,0,4,0,6c1,0,2,0,3,0c0,1,0,2,0,3c-1,0-2,0-3,0c0,3.67,0,7.33,0,11c0,0.33,0,0.67,0,1
		c1,0,2,0,3,0c0,0.67,0,1.33,0,2c-1.67,0-3.33,0-5,0c-0.33-0.33-0.67-0.67-1-1c0-4.33,0-8.67,0-13c-1,0-2,0-3,0c0-1,0-2,0-3
		c1,0,2,0,3,0C52,23,52,21,52,19z"/>
</g>
</svg>
