<?xml version="1.0" encoding="utf-8"?>
<!-- Generator: Adobe Illustrator 27.7.0, SVG Export Plug-In . SVG Version: 6.00 Build 0)  -->
<svg version="1.1" xmlns="http://www.w3.org/2000/svg" viewBox="0 0 60 60" height="60" width="60">
<style type="text/css">
	.st1{fill:#FFDD00;}
	.st2{fill:#161615;}
</style>
<g id="Layer_2">
	<path class="st1" d="M46,58H14C7.4,58,2,52.6,2,46V14C2,7.4,7.4,2,14,2h32c6.6,0,12,5.4,12,12v32C58,52.6,52.6,58,46,58z"/>
	<polygon class="st2" points="45.71,14.47 45.71,19.56 40.74,19.56 32.12,45.47 28.2,45.47 17.59,19.56 17.59,45.47 13.71,45.47 
		13.71,14.47 19.95,14.47 29.21,39.01 39.54,14.47 	"/>
	<rect x="42.13" y="23.51" class="st2" width="3.87" height="21.96"/>
</g>
</svg>
