<?xml version="1.0" encoding="utf-8"?>
<!-- Generator: Adobe Illustrator 27.7.0, SVG Export Plug-In . SVG Version: 6.00 Build 0)  -->
<svg version="1.1" id="Layer_1" xmlns="http://www.w3.org/2000/svg" viewBox="0 0 60 60" height="60" width="60">
<style type="text/css">
	.st0{fill:#00ACBA;}
</style>
<path class="st0" d="M32.35,13.95c-0.27-0.03-0.55-0.01-0.85,0.06c-5.12,1.22-9.23,5.39-10.93,10.16
	c-6.36,17.79,17.6,32.57,30.71,18.54c0.95-1.01,1.89-2.41,2.6-3.56c0.21-0.34,0.4-0.53,0.82-0.35c1.7,0.73,1.28,2.67,0.56,3.93
	c-4.44,7.81-13.24,12.66-22.37,10.74c-12.23-2.57-21-14.37-17.58-26.98C18.2,15.82,29.79,7.89,40.54,13.44
	c0.75,0.39,2.65,1.63,2.21,2.63c-0.18,0.42-0.8,0.39-1.2,0.2c-4.2-2.01-8.74-0.72-10.88,3.33c-2,3.79,0.46,8.06,3.93,10.08
	c4.47,2.6,10.17,1.07,12.56-3.54c2.79-5.39-0.99-11.79-5.52-14.86c-11.17-7.6-27.64-0.47-31.02,12.19c-0.49,1.84-0.46,3.45-2.47,4.3
	c-1.38,0.59-2.67,0.48-3.85-0.34c-0.07-0.05-0.12-0.12-0.14-0.2c-0.3-1.26,0.94-3.64,1.43-4.77c2.81-6.53,7.45-11.2,13.93-13.99
	c5.03-2.17,10.94-3.19,16.41-1.54c4.46,1.35,8.31,3.72,11.12,7.49c2.65,3.54,4,8.22,2.49,12.51c-1.83,5.23-7.54,8.45-13.05,7.24
	c-0.75-0.16-1.46-0.36-2.15-0.58c-0.09-0.03-0.19,0.02-0.22,0.11c-0.02,0.07,0,0.14,0.05,0.19c3.27,2.86,8.34,3.62,12.23,2.18
	c7.17-2.65,8.42-10.49,5.96-16.91c-1.66-4.33-4.58-7.72-8.77-10.16c-0.67-0.39-0.95-0.65-0.76-1.43c0.08-0.31,0.26-0.39,0.54-0.24
	c5.38,2.92,9.06,7.22,11.03,12.9c1.28,3.69,1.57,8.11,0.13,11.77c-2.25,5.73-7.57,9.09-13.73,8.69c-9.1-0.59-16.02-8.78-14.58-17.88
	c0.62-3.93,2.68-6.82,6.17-8.66c0.05-0.02,0.07-0.08,0.05-0.13C32.42,13.97,32.39,13.95,32.35,13.95z"/>
</svg>
