<?xml version="1.0" encoding="utf-8"?>
<!-- Generator: Adobe Illustrator 27.7.0, SVG Export Plug-In . SVG Version: 6.00 Build 0)  -->
<svg version="1.1" xmlns="http://www.w3.org/2000/svg" viewBox="0 0 60 60" height="60" width="60">
<g id="Layer_2">
	<g>
		<path d="M47.5,13.5c3.86,0,7,3.14,7,7v19c0,3.86-3.14,7-7,7h-35c-3.86,0-7-3.14-7-7v-19c0-3.86,3.14-7,7-7H47.5 M47.5,10.5h-35
			c-5.5,0-10,4.5-10,10v19c0,5.5,4.5,10,10,10h35c5.5,0,10-4.5,10-10v-19C57.5,15,53,10.5,47.5,10.5L47.5,10.5z"/>
	</g>
	<g>
		<polygon points="57,20 3,20 3,24 57,24 57,20 		"/>
	</g>
	<g>
		<polygon points="19,31 9,31 9,33 19,33 19,31 		"/>
	</g>
	<g>
		<polygon points="28,35 9,35 9,38 28,38 28,35 		"/>
	</g>
</g>
</svg>
