<?xml version="1.0" encoding="utf-8"?>
<!-- Generator: Adobe Illustrator 27.7.0, SVG Export Plug-In . SVG Version: 6.00 Build 0)  -->
<svg version="1.1" id="Layer_1" xmlns="http://www.w3.org/2000/svg" viewBox="0 0 60 60" height="60" width="60">
<style type="text/css">
	.st0{fill-rule:evenodd;clip-rule:evenodd;fill:#32B4D8;}
</style>
<path class="st0" d="M11.56,37.79c1.28-3.82,3.11-8.02,5.47-12.29s4.95-8.02,7.51-11.08c2.54,3.05,5.14,6.83,7.49,11.1
	c2.37,4.25,4.21,8.48,5.49,12.29c-3.82,0.76-8.25,1.22-12.97,1.22S15.36,38.57,11.56,37.79L11.56,37.79z M51.25,22.81
	c-1.71-1.4-4.04-2.64-6.93-3.63c-2.58-0.89-5.55-1.59-8.75-2.08l2.76,4.66l0.39,0.72c7.07,1.61,11.74,4.37,11.74,7.53
	c0,2.64-3.28,5.03-8.52,6.66c-1.4-4.31-3.44-8.95-5.98-13.53c-3.28-5.9-7.01-11.06-10.79-14.89c-4.37-4.46-8.39-6.72-11.94-6.72
	c-1.42,0-2.76,0.35-3.94,1.07C7.75,3.53,5.72,5.51,5.17,9.59C4.86,11.84,5,14.54,5.6,17.66c0.54,2.76,1.44,5.78,2.64,8.91
	c0.76-1.61,1.61-3.22,2.5-4.85l0.39-0.7C8.94,13.84,8.92,8.27,11.54,6.68c0.5-0.29,1.05-0.43,1.67-0.43c2.17,0,5.05,1.75,8.15,4.76
	c-2.91,3.42-5.73,7.55-8.27,12.13C9.4,29.8,6.73,36.63,5.6,42.37c-0.6,3.09-0.76,5.8-0.43,8.04c0.58,4.06,2.56,6.04,4.13,6.99
	c1.18,0.7,2.5,1.07,3.94,1.07c3.55,0,7.57-2.27,11.94-6.72c1.65-1.69,3.2-3.51,4.62-5.38c-1.71,0.1-3.49,0.17-5.26,0.17
	c-0.27,0-0.54,0-0.8,0c-3.96,4.52-7.78,7.22-10.48,7.22c-0.62,0-1.18-0.14-1.67-0.43C9.38,52,9.05,47.85,10.28,42.3
	c4.31,0.91,9.18,1.38,14.25,1.38c7.4,0,14.42-1.03,19.78-2.89c2.89-0.99,5.22-2.23,6.93-3.63c3.11-2.56,3.75-5.32,3.75-7.2
	C55,28.13,54.34,25.35,51.25,22.81L51.25,22.81z"/>
</svg>
