<?xml version="1.0" encoding="utf-8"?>
<!-- Generator: Adobe Illustrator 27.7.0, SVG Export Plug-In . SVG Version: 6.00 Build 0)  -->
<svg version="1.1" id="Layer_1" xmlns="http://www.w3.org/2000/svg" viewBox="0 0 60 60" height="60" width="60">
<style type="text/css">
	.st0{fill:#003087;}
	.st1{fill:#009CDE;}
	.st2{fill:#012169;}
</style>
<g>
	<path class="st0" d="M46.38,6.65c-2.55-2.9-7.15-4.15-13.04-4.15H16.25c-1.2,0-2.23,0.87-2.42,2.06L6.72,49.7
		c-0.13,0.8,0.42,1.55,1.22,1.68c0.08,0.01,0.15,0.02,0.23,0.02h10.55l2.65-16.81l-0.08,0.53c0.19-1.19,1.21-2.06,2.41-2.06h5.01
		c9.85,0,17.56-4,19.82-15.58c0.07-0.34,0.12-0.68,0.17-1C49.37,12.2,48.7,9.29,46.38,6.65"/>
	<path class="st0" d="M46.38,6.65c-2.55-2.9-7.15-4.15-13.04-4.15H16.25c-1.2,0-2.23,0.87-2.42,2.06L6.72,49.7
		c-0.13,0.8,0.42,1.55,1.22,1.68c0.08,0.01,0.15,0.02,0.23,0.02h10.55l2.65-16.81l-0.08,0.53c0.19-1.19,1.21-2.06,2.41-2.06h5.01
		c9.85,0,17.56-4,19.82-15.58c0.07-0.34,0.12-0.68,0.17-1C49.37,12.2,48.7,9.29,46.38,6.65"/>
	<path class="st0" d="M24.21,16.53c0.17-1.04,1.06-1.8,2.11-1.81h13.4c1.59,0,3.07,0.1,4.42,0.32c0.74,0.12,1.47,0.28,2.19,0.49
		c0.82,0.23,1.61,0.54,2.36,0.94c0.67-4.28,0-7.19-2.32-9.83c-2.55-2.9-7.15-4.15-13.04-4.15H16.25c-1.2,0-2.23,0.88-2.42,2.06
		L6.71,49.7c-0.13,0.8,0.42,1.55,1.22,1.68c0.08,0.01,0.15,0.02,0.23,0.02h10.55l2.65-16.81L24.21,16.53z"/>
	<path class="st1" d="M48.7,16.47c-0.05,0.33-0.11,0.67-0.17,1c-2.25,11.57-9.97,15.58-19.82,15.58h-5.02
		c-1.2,0-2.22,0.88-2.41,2.06L18.72,51.4l-0.73,4.62c-0.11,0.7,0.37,1.36,1.07,1.47c0.07,0.01,0.13,0.02,0.2,0.02h8.9
		c1.05,0,1.95-0.77,2.11-1.81l0.09-0.45l1.68-10.63l0.11-0.59c0.16-1.04,1.06-1.81,2.11-1.81h1.33c8.62,0,15.36-3.5,17.34-13.63
		c0.82-4.23,0.4-7.76-1.78-10.24C50.44,17.58,49.62,16.95,48.7,16.47"/>
	<path class="st2" d="M46.34,15.53c-0.34-0.1-0.7-0.19-1.06-0.27c-0.37-0.08-0.74-0.15-1.13-0.21c-1.35-0.22-2.83-0.32-4.42-0.32
		h-13.4c-1.05,0-1.95,0.77-2.11,1.81l-2.85,18.06l-0.08,0.52c0.18-1.19,1.21-2.06,2.41-2.06h5.02c9.85,0,17.56-4,19.82-15.58
		c0.07-0.34,0.12-0.67,0.17-1c-0.6-0.31-1.21-0.57-1.85-0.78C46.68,15.64,46.51,15.59,46.34,15.53"/>
</g>
</svg>
