<?xml version="1.0" encoding="utf-8"?>
<!-- Generator: Adobe Illustrator 27.7.0, SVG Export Plug-In . SVG Version: 6.00 Build 0)  -->
<svg version="1.1" id="Layer_1" xmlns="http://www.w3.org/2000/svg" viewBox="0 0 60 60" height="60" width="60">
<style type="text/css">
	.st0{fill:#007BC4;}
	.st1{fill:#00457D;}
	.st2{fill:#FFFFFF;}
	.st3{fill:#02447B;}
</style>
<g>
	<path class="st0" d="M36.25,20.89c-0.4-0.24-1.76-1.03-2.94-1.01c-1.73,0.02-3.14,1.1-3.44,1.37L12.04,37.39
		c-0.15,0.13-1.44,1.27-1.31,2.99c0.08,1.11,0.73,2.13,1.7,2.76h-5.6c-1.48-0.27-2.63-1.36-2.89-2.72c-0.3-1.54,0.67-2.71,0.8-2.87
		c7.09-6.45,14.18-12.9,21.27-19.34c0.35-0.3,1.58-1.28,3.44-1.35c1.95-0.07,3.3,0.91,3.65,1.19C34.15,19,35.2,19.94,36.25,20.89z"
		/>
	<path class="st1" d="M56.01,40.96c-0.43,1.64-2.08,2.16-2.17,2.18H12.44c-0.98-0.63-1.62-1.64-1.7-2.76
		c-0.12-1.72,1.16-2.86,1.31-2.99l17.83-16.15c0.31-0.28,1.71-1.35,3.44-1.37c1.18-0.01,2.53,0.78,2.94,1.01h0
		C42.4,26.44,48.55,32,54.7,37.56C55.82,38.33,56.34,39.71,56.01,40.96z"/>
	<path class="st2" d="M35.49,33.45c-0.09,0.58-0.53,0.58-0.96,0.58h-0.24l0.17-1.08c0.01-0.07,0.07-0.11,0.13-0.11h0.11
		c0.29,0,0.57,0,0.71,0.17C35.5,33.1,35.52,33.25,35.49,33.45 M35.3,31.94h-1.62c-0.11,0-0.2,0.08-0.22,0.19l-0.65,4.15
		c-0.01,0.07,0.04,0.14,0.11,0.15c0.01,0,0.01,0,0.02,0h0.83c0.08,0,0.14-0.06,0.16-0.13l0.19-1.18c0.02-0.11,0.11-0.19,0.22-0.19
		h0.51c1.07,0,1.68-0.52,1.84-1.54c0.07-0.45,0-0.8-0.21-1.04C36.25,32.08,35.84,31.94,35.3,31.94"/>
	<path class="st2" d="M23.95,33.45c-0.09,0.58-0.53,0.58-0.96,0.58h-0.24l0.17-1.08c0.01-0.07,0.07-0.11,0.13-0.11h0.11
		c0.29,0,0.57,0,0.71,0.17C23.96,33.1,23.98,33.25,23.95,33.45 M23.76,31.94h-1.62c-0.11,0-0.2,0.08-0.22,0.19l-0.65,4.15
		c-0.01,0.07,0.04,0.14,0.11,0.15c0.01,0,0.01,0,0.02,0h0.77c0.11,0,0.2-0.08,0.22-0.19l0.18-1.12c0.02-0.11,0.11-0.19,0.22-0.19
		h0.51c1.07,0,1.68-0.52,1.84-1.54c0.07-0.45,0-0.8-0.21-1.04C24.71,32.08,24.31,31.94,23.76,31.94 M27.52,34.94
		c-0.08,0.44-0.43,0.74-0.87,0.74c-0.22,0-0.4-0.07-0.52-0.21c-0.11-0.14-0.16-0.33-0.12-0.54c0.07-0.44,0.43-0.75,0.87-0.75
		c0.22,0,0.4,0.07,0.52,0.21C27.51,34.53,27.55,34.73,27.52,34.94 M28.6,33.43h-0.77c-0.07,0-0.12,0.05-0.13,0.11l-0.03,0.22
		l-0.05-0.08c-0.17-0.24-0.54-0.32-0.92-0.32c-0.86,0-1.59,0.65-1.73,1.56c-0.07,0.45,0.03,0.89,0.29,1.19
		c0.24,0.28,0.57,0.39,0.98,0.39c0.69,0,1.07-0.44,1.07-0.44l-0.03,0.22c-0.01,0.07,0.04,0.14,0.11,0.15c0.01,0,0.01,0,0.02,0h0.7
		c0.11,0,0.2-0.08,0.22-0.19l0.42-2.65c0.01-0.07-0.04-0.14-0.11-0.15C28.61,33.43,28.61,33.43,28.6,33.43"/>
	<path class="st2" d="M39.06,34.94c-0.08,0.44-0.43,0.74-0.87,0.74c-0.22,0-0.4-0.07-0.52-0.21c-0.11-0.14-0.16-0.33-0.12-0.54
		c0.07-0.44,0.43-0.75,0.87-0.75c0.22,0,0.4,0.07,0.52,0.21C39.05,34.53,39.09,34.73,39.06,34.94 M40.14,33.43h-0.77
		c-0.07,0-0.12,0.05-0.13,0.11l-0.03,0.22l-0.05-0.08c-0.17-0.24-0.54-0.32-0.92-0.32c-0.86,0-1.59,0.65-1.73,1.56
		c-0.07,0.45,0.03,0.89,0.29,1.19c0.24,0.28,0.57,0.39,0.98,0.39c0.69,0,1.07-0.44,1.07-0.44l-0.03,0.22
		c-0.01,0.07,0.04,0.14,0.11,0.15c0.01,0,0.01,0,0.02,0h0.7c0.11,0,0.2-0.08,0.22-0.19l0.42-2.65c0.01-0.07-0.04-0.14-0.11-0.15
		C40.15,33.43,40.15,33.43,40.14,33.43"/>
	<path class="st2" d="M32.73,33.43h-0.78c-0.07,0-0.14,0.04-0.19,0.1l-1.07,1.58l-0.46-1.52c-0.03-0.1-0.12-0.16-0.22-0.16h-0.77
		c-0.07,0-0.13,0.06-0.13,0.14c0,0.01,0,0.03,0.01,0.04l0.86,2.52l-0.81,1.14c-0.04,0.06-0.03,0.15,0.03,0.19
		c0.02,0.02,0.05,0.02,0.08,0.02h0.78c0.07,0,0.14-0.04,0.18-0.1l2.59-3.74c0.04-0.06,0.03-0.15-0.03-0.19
		C32.78,33.44,32.75,33.43,32.73,33.43"/>
	<path class="st2" d="M41.05,32.05l-0.66,4.22c-0.01,0.07,0.04,0.14,0.11,0.15c0.01,0,0.01,0,0.02,0h0.67c0.11,0,0.2-0.08,0.22-0.19
		l0.65-4.15c0.01-0.07-0.04-0.14-0.11-0.15c-0.01,0-0.01,0-0.02,0h-0.75C41.12,31.94,41.06,31.98,41.05,32.05"/>
	<path class="st2" d="M50.97,39.2c-0.1,0.37-0.47,0.48-0.49,0.49h-9.31c-0.22-0.14-0.37-0.37-0.38-0.62
		c-0.03-0.39,0.26-0.64,0.3-0.67l4.01-3.63c0.07-0.06,0.38-0.3,0.77-0.31c0.26,0,0.57,0.18,0.66,0.23h0
		c1.38,1.25,2.77,2.5,4.15,3.75C50.93,38.61,51.05,38.91,50.97,39.2z"/>
	<g>
		<g>
			<path class="st3" d="M43.87,36.8l-0.16,0.83h0.91l0.16-0.83h0.25l-0.38,1.97H44.4l0.18-0.93h-0.91l-0.18,0.93h-0.24l0.38-1.97
				H43.87z"/>
			<path class="st3" d="M46.09,38.68c-0.11,0.06-0.28,0.11-0.47,0.11c-0.37,0-0.54-0.25-0.54-0.57c0-0.43,0.32-0.91,0.77-0.91
				c0.27,0,0.41,0.16,0.41,0.36c0,0.37-0.42,0.47-0.94,0.46c-0.01,0.06,0,0.19,0.03,0.27c0.06,0.13,0.17,0.19,0.32,0.19
				c0.17,0,0.29-0.05,0.38-0.1L46.09,38.68z M45.82,37.51c-0.23,0-0.4,0.22-0.46,0.45c0.38,0,0.68-0.05,0.68-0.27
				C46.04,37.57,45.95,37.51,45.82,37.51z"/>
			<path class="st3" d="M46.4,38.77l0.17-0.91c0.04-0.18,0.06-0.37,0.07-0.5h0.21c-0.01,0.1-0.02,0.2-0.04,0.31h0.01
				c0.09-0.19,0.24-0.34,0.43-0.34c0.02,0,0.05,0,0.07,0.01l-0.05,0.24c-0.01,0-0.04-0.01-0.06-0.01c-0.21,0-0.4,0.25-0.46,0.58
				l-0.12,0.62H46.4z"/>
			<path class="st3" d="M48.33,38.68c-0.11,0.06-0.28,0.11-0.47,0.11c-0.37,0-0.54-0.25-0.54-0.57c0-0.43,0.32-0.91,0.77-0.91
				c0.27,0,0.41,0.16,0.41,0.36c0,0.37-0.42,0.47-0.94,0.46c-0.01,0.06,0,0.19,0.03,0.27c0.06,0.13,0.17,0.19,0.32,0.19
				c0.17,0,0.29-0.05,0.38-0.1L48.33,38.68z M48.06,37.51c-0.23,0-0.4,0.22-0.46,0.45c0.38,0,0.68-0.05,0.68-0.27
				C48.27,37.57,48.19,37.51,48.06,37.51z"/>
		</g>
	</g>
</g>
</svg>
