<?xml version="1.0" encoding="utf-8"?>
<!-- Generator: Adobe Illustrator 27.7.0, SVG Export Plug-In . SVG Version: 6.00 Build 0)  -->
<svg version="1.1" xmlns="http://www.w3.org/2000/svg" viewBox="0 0 96 96" height="96" width="96">
<style type="text/css">
	.st2{fill:#FFFFFF;}
	.st3{fill:none;stroke:#FFFFFF;stroke-width:3;stroke-miterlimit:10;}
</style>
<g id="Layer_3">
	<g>
		<path class="st2" d="M48,5c23.71,0,43,19.29,43,43S71.71,91,48,91c-7.89,0-15.61-2.16-22.31-6.23c-0.72-0.44-1.59-0.66-2.58-0.66
			c-3.02,0-8.38,2.35-12.87,4.63c0.25-0.82,0.51-1.67,0.76-2.53c3.02-10.44,2.32-12.72,1.35-14.16C7.54,64.93,5,56.62,5,48
			C5,24.29,24.29,5,48,5 M48,2C22.59,2,2,22.59,2,48c0,9.53,2.9,18.38,7.86,25.72C11.67,76.41,5,95,5,95s13.56-7.89,18.11-7.89
			c0.43,0,0.77,0.07,1.02,0.22C31.09,91.56,39.26,94,48,94c25.41,0,46-20.59,46-46S73.41,2,48,2L48,2z"/>
	</g>
	<path class="st3" d="M30.5,39.5c0.02-1.11,0.24-8.09,6-13c4.83-4.12,10.37-4.05,12-4c1.63,0.05,9.29,0.48,14,7
		c3.75,5.19,3.15,10.81,3,12c-0.7,5.44-3.84,8.85-5,10c-4.77,4.7-10.65,4.97-12,5c0,4,0,8,0,12"/>
	<line class="st3" x1="48.5" y1="71.5" x2="48.5" y2="74.5"/>
</g>
</svg>
