<?xml version="1.0" encoding="UTF-8"?>
<svg xmlns="http://www.w3.org/2000/svg" version="1.1" viewBox="0 0 500 500">
  <defs>
    <style>
      .cls-1 {
        fill: #606060;
      }

      .cls-2 {
        fill: #8d8d8d;
      }

      .cls-3 {
        fill: #454545;
      }

      .cls-4 {
        fill: #fefefe;
      }
    </style>
  </defs>
  <!-- Generator: Adobe Illustrator 28.7.1, SVG Export Plug-In . SVG Version: 1.2.0 Build 142)  -->
  <g>
    <g id="Layer_1"  fill="#32BDB9">
      <g>
        <path d="M252.6,45.1c6.9,2.7,11.9,7,12.1,15,.2,8-5.2,14.5-13.1,15.5-8.8,1.1-17.8.8-26.6,2.1-32.3,4.7-61.2,17.4-86.2,38.3-28.5,23.9-48.4,53.6-57.2,89.9-14.4,59.5-1.7,113,38.9,159.2,27,30.8,61.2,49.6,101.7,55.6,53.4,8,101.2-5.7,142-41.5,31.1-27.3,49.7-61.7,56.6-102.5,1.4-8.5,1.9-17.2,2.1-25.8.3-10.1,6.2-16.6,15-16.8,9.1-.2,15.9,6.6,15.9,16.2-.1,22.8-3.4,45.1-11.5,66.4-26.4,70-75.8,115.2-148.8,132-103.5,23.8-207.6-37.4-239.2-138.8-4.2-13.5-6.8-27.3-8.3-41.3,0-.8.4-1.9-.8-2.3v-3.2c.6-.5.4-1.2.4-1.9,0-.5,0-1,0-1.5-.1-1,.4-2.1-.4-3v-14.4c.8-.9.3-2,.4-3,0-.5,0-1,0-1.5,0-.6.2-1.4-.4-1.9v-3.2c.9-5.6.8-11.3,1.7-16.9,6.6-37.8,22.1-71.4,47.4-100.4,32.5-37.3,73.2-60.1,121.9-68.6,5.7-1,11.6-.8,17.3-1.7h2.4c.5.6,1.2.4,1.9.4.5,0,1,0,1.5,0,1-.1,2.1.4,3-.4h10.4Z"/>
        <path class="cls-4" d="M233.4,45.1c-4.2,1.7-8.7,1.4-13,2.1-78.5,13.5-132.4,57.4-162.4,130.9-6.8,16.7-10.2,34.3-12.1,52.2,0,.8.4,1.9-.8,2.3,0-61.4,0-122.8,0-184.2,0-2.9.6-3.5,3.5-3.5,61.7.1,123.3,0,185,0Z"/>
        <path class="cls-3" d="M242.2,45.1c-.8,1.2-2.1.7-3.2.7-.2-.2-.3-.3-.2-.5,0-.2.2-.2.3-.2h3.2Z"/>
        <path class="cls-3" d="M45.8,239c0,1.1.5,2.4-.7,3.2v-3.2c.2-.4.5-.4.7,0Z"/>
        <path class="cls-3" d="M45.1,256.6c1.2.9.7,2.1.7,3.2-.3.3-.5.3-.7,0v-3.2Z"/>
        <path class="cls-2" d="M237.4,45.8c-.6,0-1.4.3-1.6-.7h1.6c.3.2.4.3.2.5,0,.1-.2.2-.3.2Z"/>
        <path class="cls-1" d="M237.4,45.8c0-.2,0-.5,0-.7h1.6c0,.2,0,.5,0,.7-.5,0-1.1,0-1.6,0Z"/>
        <path class="cls-2" d="M45.1,235.8c1,.2.8.9.7,1.6-.2.4-.4.4-.7,0v-1.6Z"/>
        <path class="cls-1" d="M45.1,237.4c.2,0,.5,0,.7,0,0,.5,0,1.1,0,1.6-.2,0-.5,0-.7,0v-1.6Z"/>
        <path class="cls-1" d="M45.1,259.8c.2,0,.5,0,.7,0,0,.5,0,1.1,0,1.6-.3.3-.5.3-.7,0v-1.6Z"/>
        <path class="cls-2" d="M45.1,261.4c.2,0,.5,0,.7,0,0,.7.3,1.4-.7,1.5v-1.6Z"/>
        <path d="M142.2,223.1c.2-6.4,3.1-11.2,9-13.8,6-2.7,11.9-1.9,16.6,2.7,5.8,5.7,11.2,11.8,16.7,17.7,16.1,17.5,32.3,35,48.3,52.6,2.3,2.5,3.3,2.4,5.6,0,59.9-59.9,119.9-119.7,179.9-179.6,4.4-4.4,9.1-7.3,15.6-6.1,11.6,2.1,16.6,15.5,9.2,24.7-1,1.2-2.2,2.4-3.3,3.5-63.8,63.7-127.7,127.4-191.5,191.1-9.4,9.4-17.8,9.2-26.9-.7-24.6-26.7-49.2-53.4-73.8-80.1-3.2-3.4-5.5-7.2-5.3-12.1Z"/>
      </g>
    </g>
    <metadata>
      <sfw xmlns="http://ns.adobe.com/SaveForWeb/1.0/">
        <slices/>
        <sliceSourceBounds x="45" y="46.22" width="408.7" height="408.78" bottomLeftOrigin="true"/>
      </sfw>
    </metadata>
  </g>
</svg>