<?xml version="1.0" ?>
<svg viewBox="0 0 256 256" xmlns="http://www.w3.org/2000/svg">
    <rect fill="none" height="256" width="256" />
    <path fill="#6E6E6E" d="M224,40H184a8,8,0,0,0,0,16h32V88a8,8,0,0,0,16,0V48A8,8,0,0,0,224,40Z" />
    <path fill="#6E6E6E" d="M72,200H40V168a8,8,0,0,0-16,0v40a8,8,0,0,0,8,8H72a8,8,0,0,0,0-16Z" />
    <path fill="#6E6E6E" d="M224,160a8,8,0,0,0-8,8v32H184a8,8,0,0,0,0,16h40a8,8,0,0,0,8-8V168A8,8,0,0,0,224,160Z" />
    <path fill="#6E6E6E" d="M32,96a8,8,0,0,0,8-8V56H72a8,8,0,0,0,0-16H32a8,8,0,0,0-8,8V88A8,8,0,0,0,32,96Z" />
    <path fill="#6E6E6E" d="M80,80a8,8,0,0,0-8,8v80a8,8,0,0,0,16,0V88A8,8,0,0,0,80,80Z" />
    <path fill="#6E6E6E" d="M184,168V88a8,8,0,0,0-16,0v80a8,8,0,0,0,16,0Z" />
    <path fill="#6E6E6E" d="M144,80a8,8,0,0,0-8,8v80a8,8,0,0,0,16,0V88A8,8,0,0,0,144,80Z" />
    <path fill="#6E6E6E" d="M112,80a8,8,0,0,0-8,8v80a8,8,0,0,0,16,0V88A8,8,0,0,0,112,80Z" />
</svg>