<?xml version="1.0" encoding="utf-8"?>
<!-- Generator: Adobe Illustrator 27.7.0, SVG Export Plug-In . SVG Version: 6.00 Build 0)  -->
<svg version="1.1" xmlns="http://www.w3.org/2000/svg" viewBox="0 0 96 96" height="96" width="96">
<style type="text/css">
	.st1{display:inline;}
	.st2{fill:#FFFFFF;}
</style>
<g id="Layer_3">
	<g>
		<path class="st2" d="M69,26c12.13,0,22,9.87,22,22c0,12.13-9.87,22-22,22H27C14.87,70,5,60.13,5,48c0-12.13,9.87-22,22-22H69
			 M69,23H27C13.25,23,2,34.25,2,48v0c0,13.75,11.25,25,25,25h42c13.75,0,25-11.25,25-25v0C94,34.25,82.75,23,69,23L69,23z"/>
	</g>
	<g>
		<path class="st2" d="M28,33c8.27,0,15,6.73,15,15s-6.73,15-15,15s-15-6.73-15-15S19.73,33,28,33 M28,30c-9.94,0-18,8.06-18,18
			s8.06,18,18,18s18-8.06,18-18S37.94,30,28,30L28,30z"/>
	</g>
</g>
</svg>
