<?xml version="1.0" encoding="utf-8"?>
<!-- Generator: Adobe Illustrator 27.7.0, SVG Export Plug-In . SVG Version: 6.00 Build 0)  -->
<svg version="1.1" id="Layer_2" xmlns="http://www.w3.org/2000/svg" xmlns:xlink="http://www.w3.org/1999/xlink" x="0px" y="0px"
	 viewBox="0 0 717 435" style="enable-background:new 0 0 717 435;" xml:space="preserve">
<style type="text/css">
	.st0{fill:#EA5454;}
	.st1{fill:#FFFFFF;}
	.st2{fill:#E95555;}
	.st3{fill:#993A3A;}
	.st4{fill:#3ECBCE;}
	.st5{fill:#B8F4F2;}
	.st6{fill:#A7AAAA;}
	.st7{fill:#F8931E;}
	.st8{fill:#FFD139;}
	.st9{fill:#FFFBE1;}
</style>
<path class="st0" d="M538.5,121.5c0.67,5.84,1.87,12.62,4,20c1.51,5.21,3.24,9.89,5,14c-4.88,1.13-9.01,1.69-12,2
	c-10.4,1.07-13.01-0.37-14-1c-0.54-0.34-4.09-2.68-5-7c-0.75-3.56,0.7-6.49,2-9c1.48-2.88,3.34-5.04,9-10
	C530.28,128.06,533.98,124.96,538.5,121.5z"/>
<path class="st1" d="M575,2c5.04,3.01,12.24,8.06,19,16c13.32,15.65,16.79,32.53,18.5,44.5c5.74,40.18-6.01,81.68-11,98
	c-17.67,0-35.33,0-53,0c-3.56-9.1-8.29-23.21-11-41c-3.21-21.12-7.95-52.29,8-83C549.75,28.31,558.28,14.76,575,2z"/>
<polygon class="st2" points="608.5,46.5 541.5,46.5 545.5,37.5 605.5,37.5 "/>
<polygon class="st0" points="602.5,168.5 548.5,168.5 550.5,160.5 599.5,160.5 "/>
<path class="st3" d="M610.5,122c-0.2,4.65-0.76,10.06-2,16c-1.57,7.53-3.81,13.92-6,19c2,0,4,0,6,0c2.1-3.97,4.6-9.72,6-17
	c1.13-5.88,0.73-11.04,0.5-15C613.33,124,612.17,123,610.5,122z"/>
<polygon class="st3" points="602.5,168.5 589,168.5 589.5,160.5 599.5,160.5 "/>
<circle class="st3" cx="558.5" cy="42.5" r="3"/>
<circle class="st3" cx="575.5" cy="42.5" r="3"/>
<circle class="st2" cx="575.5" cy="85.5" r="27"/>
<circle class="st3" cx="591.5" cy="42.5" r="3"/>
<circle class="st3" cx="591.5" cy="68.5" r="3"/>
<circle class="st3" cx="558.5" cy="68.5" r="3"/>
<circle class="st3" cx="574.5" cy="62.5" r="3"/>
<circle class="st3" cx="574.5" cy="108.5" r="3"/>
<circle class="st3" cx="558.5" cy="102.5" r="3"/>
<circle class="st3" cx="551.5" cy="85.5" r="3"/>
<circle class="st3" cx="598.5" cy="85.5" r="3"/>
<circle class="st3" cx="592.5" cy="101.5" r="3"/>
<circle class="st4" cx="575.5" cy="85.5" r="20"/>
<ellipse class="st5" cx="566" cy="85.5" rx="5.5" ry="11"/>
<path class="st6" d="M191.5,434.5c5.44-5.43,12.07-11.29,20-17c13.48-9.71,26.48-15.94,37-20c-0.36-7.6-0.26-18.38,2-31
	c1.96-10.95,4.95-27.68,16-44c18.4-27.17,47.36-35.82,58-39c17.19-5.14,31.62-5.08,39-5c8.53,0.1,22.47,0.36,39,6
	c20.27,6.91,34.46,18.49,43,27c6.49-3.8,14.85-7.87,25-11c20.84-6.42,37.94-5.41,43-5c17.66,1.42,31.42,6.8,40,11
	c1-37.67,3.5-74.83,4.5-112.5c12.33,0,21.67,0,34,0c1,40.67,3.5,80.83,4.5,121.5c5.95-1.18,14.59-2.38,25-2
	c7.58,0.28,22.37,0.98,39,9c6.39,3.08,16.25,8.79,26,19c2.63-4.26,7.05-10.31,14-16c6.35-5.2,12.55-8.23,17-10c0,40,0,80,0,120
	C542.17,435.17,366.83,434.83,191.5,434.5z"/>
<path class="st1" d="M492.5,434.5c73.33,0,151.67,1,225,1c0.33-34.33-0.33-72.67,0-107c-4.34,2.94-11.68,8.16-17,14
	c-5.62,6.17-9.44,12.22-12,17c-4.76-5.85-13.15-14.71-26-22c-4.1-2.33-15.66-8.47-32-11c-20.2-3.13-36.8,0.94-46,4
	c-1-39.67-2-79.33-3-119c-4,0.33-8,0.67-12,1c-1.67,43-3.33,86-5,129c-6.47,5.03-15.52,13.39-23,26c-12.51,21.1-13.26,41.64-13,51
	c-4.83,0.93-10.65,2.45-17,5C504.53,426.3,496.86,431.57,492.5,434.5z"/>
<path class="st7" d="M574.93,224.47c2.65-2.03,13.16-16.04,16.57-26.97c3.34-10.69-5-25.79-6-29c-8.26,0-12.74,0-21,0
	c-0.95,4.01-8.2,20.76-6,30C561.09,209.39,572.02,221.43,574.93,224.47z"/>
<path class="st8" d="M574.93,203.47c2.65-2.03,11.57-7.52,11.57-18.97c0-9-2-12.79-3-16c-8.26,0-8.74,0.03-17,0.03
	c-0.95,4.01-2,6.97-2,13.97C564.5,193.69,572.02,200.43,574.93,203.47z"/>
<path class="st9" d="M574.5,188.5c1.39-1.06,5.21-4.27,7-10c1.75-5.61,0.52-8.32,0-10c-4.33,0-8.67,0-13,0c-0.5,2.11-1.15,4.15,0,9
	C569.86,183.21,572.98,186.91,574.5,188.5z"/>
<path class="st0" d="M615,125c4.5,3.72,7.27,6.79,9.5,9.5c4.5,5.47,6.96,8.55,7,13c0,0.44-0.03,6.44-4,9c-1.7,1.09-3.31,1.04-7,1
	c-2.83-0.03-6.77-0.56-12.5-0.5c0.9-2.06,1.47-4.26,2.5-7.5c0.59-1.86,2.03-6.63,3-13C614,133.21,614.93,129.65,615,125z"/>
<path class="st1" d="M475.5,434.5c3.22-3.63,8.8-10.02,15-14c10.54-6.76,20.72-9.1,27-10c-0.09-7.16,0.62-16.96,4-28
	c1.82-5.93,5.94-17.2,15-29c6.04-7.87,12.31-13.39,17-17c0-9.67,0-19.33,0-29c-4.58-2.24-11.01-4.95-19-7
	c-6.37-1.63-16.09-4.13-28-3c-17.35,1.64-29.4,10.01-35,14c-12.91,9.2-20.23,20.18-24,27c-5.03-6.33-14.98-17.14-31-25
	c-5.03-2.47-22.4-10.4-46-9c-6.77,0.4-24.91,2.22-44,14c-6.92,4.27-19.61,12.3-29,28c-12.99,21.72-11.12,43.84-10,52
	c-9.34,1.15-16.4,3.83-21,6c-11.34,5.34-18.77,12.78-25,19c-3.91,3.91-6.93,8.43-9,11C313.83,434.17,394.17,434.83,475.5,434.5z"/>
<path class="st5" d="M590.5,160.5c2.33-4.8,6.43-13.97,9-23c4.78-16.83,4.94-30.44,5-43c0.04-9.42,0.04-21.49-3-37
	c-3.44-17.58-9.27-31.94-13-41c-1.2-2.92-2.25-5.33-3-7c3.86,3.66,10.11,8.27,15,16c9.96,15.73,11.87,31.54,13,44
	c2.5,27.5-0.52,48.41-3,60c-2.71,12.66-5.22,23.89-8,31C599.17,160.17,593.83,160.83,590.5,160.5z"/>
</svg>
