<?xml version="1.0" encoding="utf-8"?>
<!-- Generator: Adobe Illustrator 27.7.0, SVG Export Plug-In . SVG Version: 6.00 Build 0)  -->
<svg version="1.1" id="Layer_2" xmlns="http://www.w3.org/2000/svg"  viewBox="0 0 60 60" height="60" width="60">
<style type="text/css">
	.st0{fill:url(#SVGID_1_);}
</style>
<linearGradient id="SVGID_1_" gradientUnits="userSpaceOnUse" x1="1.9643" y1="30.438" x2="57.5534" y2="30.438">
	<stop  offset="0" style="stop-color:#48C5DF"/>
	<stop  offset="0.4149" style="stop-color:#43C4D6"/>
	<stop  offset="0.5034" style="stop-color:#42C4C6"/>
	<stop  offset="0.583" style="stop-color:#4DC8C2"/>
	<stop  offset="0.683" style="stop-color:#43C6BD"/>
	<stop  offset="0.7649" style="stop-color:#4FCABA"/>
	<stop  offset="0.8897" style="stop-color:#50CAB6"/>
	<stop  offset="1" style="stop-color:#53CCB5"/>
</linearGradient>
<path class="st0" d="M35.06,21.85c-0.43-0.33-1.18-0.5-2.23-0.5H30.7v4.3h2.13c1.05,0,1.8-0.16,2.23-0.49
	c0.44-0.33,0.65-0.88,0.65-1.65C35.71,22.73,35.5,22.17,35.06,21.85z M35.06,21.85c-0.43-0.33-1.18-0.5-2.23-0.5H30.7v4.3h2.13
	c1.05,0,1.8-0.16,2.23-0.49c0.44-0.33,0.65-0.88,0.65-1.65C35.71,22.73,35.5,22.17,35.06,21.85z M56.5,22.5c-0.83-3.17-1.6-6.1-4-9
	c-1.56-1.89-3.23-3.06-6-5c-1.43-1.01-2.88-2.01-5-3c-1.1-0.51-3.25-1.43-6-2c-4.83-1.01-8.76-0.38-11,0c-3.29,0.56-8.11,1.37-13,5
	c-1.8,1.33-5.75,4.35-8,10c-2.31,5.81-1.45,10.98-1,13c0.11,2.53,0.55,6.06,2,10c1.19,3.22,3.02,8.2,8,12c0.81,0.62,4.06,3,9,4
	c1,0.2,4.52,0.84,9,0c2.43-0.46,4.32-1.31,8-3c5.45-2.5,8.59-3.94,12-7c1.77-1.59,3.57-3.21,5-6c1.66-3.24,1.83-6.15,2-9
	C57.61,30.6,57.66,26.93,56.5,22.5z M27.8,18.97h5.45c1.8,0,3.14,0.38,4.02,1.13s1.32,1.88,1.32,3.41c0,1.49-0.43,2.62-1.29,3.4
	c-0.86,0.77-2.12,1.16-3.77,1.16H30.7v6.17h-2.9V18.97z M14.35,30.8l2.61-1.16c0.4,0.81,0.85,1.4,1.35,1.78
	c0.49,0.37,1.08,0.56,1.75,0.56c0.77,0,1.37-0.18,1.82-0.53c0.44-0.35,0.67-0.82,0.67-1.41c0-0.47-0.17-0.87-0.5-1.19
	c-0.32-0.31-0.92-0.63-1.77-0.94c-0.12-0.05-0.28-0.11-0.5-0.19c-1.5-0.55-2.54-1.01-3.13-1.39c-0.58-0.37-1.03-0.84-1.33-1.42
	c-0.31-0.57-0.46-1.22-0.46-1.95c0-1.23,0.46-2.23,1.37-3c0.92-0.77,2.13-1.15,3.61-1.15c1.3,0,2.38,0.28,3.24,0.84
	c0.87,0.56,1.5,1.39,1.91,2.49l-2.61,0.96c-0.32-0.69-0.7-1.18-1.14-1.5c-0.43-0.31-0.97-0.46-1.62-0.46
	c-0.62,0-1.11,0.14-1.47,0.43c-0.36,0.29-0.54,0.69-0.54,1.19c0,0.77,0.88,1.5,2.64,2.19c0.54,0.21,0.96,0.38,1.27,0.51
	c1.47,0.63,2.47,1.26,3,1.91c0.53,0.65,0.79,1.5,0.79,2.55c0,1.4-0.46,2.51-1.38,3.32c-0.92,0.8-2.19,1.21-3.8,1.21
	c-1.41,0-2.59-0.31-3.57-0.93C15.59,32.91,14.85,32,14.35,30.8z M30,43c-6.48-0.13-11.11-2.78-13-4c0.67-0.67,1.33-1.33,2-2
	c1.52,1.17,5.01,3.5,10,4c7.36,0.74,12.69-3.02,14-4c0.33,0.67,0.67,1.33,1,2C42.14,40.21,37.07,43.14,30,43z M44.29,34.24H41.4
	V18.97h2.89V34.24z M35.06,25.16c0.44-0.33,0.65-0.88,0.65-1.65c0-0.78-0.21-1.34-0.65-1.66c-0.43-0.33-1.18-0.5-2.23-0.5H30.7v4.3
	h2.13C33.88,25.65,34.63,25.49,35.06,25.16z M35.06,21.85c-0.43-0.33-1.18-0.5-2.23-0.5H30.7v4.3h2.13c1.05,0,1.8-0.16,2.23-0.49
	c0.44-0.33,0.65-0.88,0.65-1.65C35.71,22.73,35.5,22.17,35.06,21.85z M35.06,21.85c-0.43-0.33-1.18-0.5-2.23-0.5H30.7v4.3h2.13
	c1.05,0,1.8-0.16,2.23-0.49c0.44-0.33,0.65-0.88,0.65-1.65C35.71,22.73,35.5,22.17,35.06,21.85z"/>
</svg>
