<?xml version="1.0" encoding="utf-8"?>
<!-- Generator: Adobe Illustrator 27.7.0, SVG Export Plug-In . SVG Version: 6.00 Build 0)  -->
<svg version="1.1" id="Layer_1" xmlns="http://www.w3.org/2000/svg"  viewBox="0 0 60 60" height="60" width="60">
<path d="M37.5,35.83c0,0.92-0.75,1.67-1.66,1.67H24.17c-0.92,0-1.67-0.75-1.67-1.67V24.17c0-0.92,0.75-1.67,1.67-1.67h11.67
	c0.91,0,1.66,0.75,1.66,1.67V35.83z M47.5,44.59c0,1.6-1.31,2.91-2.92,2.91H15.41c-1.6,0-2.91-1.31-2.91-2.91V15.42
	c0-1.6,1.31-2.91,2.91-2.91h29.17c1.6,0,2.92,1.31,2.92,2.91V44.59z M48.33,2.5H11.67c-5.04,0-9.17,4.13-9.17,9.17v36.66
	c0,5.04,4.13,9.16,9.17,9.16h36.66c5.04,0,9.17-4.12,9.17-9.16V11.67C57.5,6.63,53.37,2.5,48.33,2.5"/>
</svg>
