<?xml version="1.0" encoding="UTF-8"?>
<svg id="Layer_2" xmlns="http://www.w3.org/2000/svg" version="1.1" xmlns:i="http://ns.adobe.com/AdobeIllustrator/10.0/" viewBox="0 0 1000 500">
  <path d="M100.7,30c16.1-6.8,35.9.9,43.5,17.9l68.2,223.6h144c15.2,4.2,25.6,18.2,25.3,33.9-.3,15.4-11,28.8-26,32.6h-13.1v107.6c-.4,9.5-8.2,17.1-17.4,17.2-9.6.1-17.9-7.9-17.9-17.9v-105.6h-102.8v109.6c-2,8.1-9.3,13.8-17.4,13.9-8.6,0-16.3-6.2-17.9-14.9v-114.7c-4-2.5-8.6-6.3-12.1-11.9-5-7.9-5.4-15.8-5.6-17.4-1-11.9-21.2-81.1-69.5-234.4-4.2-16.4,4.2-33.2,18.9-39.4Z" style="fill: #32bdb9;"/>
  <path d="M899.5,30c-16.1-6.8-35.9.9-43.5,17.9l-68.2,223.6h-144c-15.2,4.2-25.6,18.2-25.3,33.9.3,15.4,11,28.8,26,32.6h13.1v107.6c.4,9.5,8.2,17.1,17.4,17.2,9.6.1,17.9-7.9,17.9-17.9v-105.6h102.8v109.6c2,8.1,9.3,13.8,17.4,13.9,8.6,0,16.3-6.2,17.9-14.9v-114.7c4-2.5,8.6-6.3,12.1-11.9,5-7.9,5.4-15.8,5.6-17.4,1-11.9,21.2-81.1,69.5-234.4,4.2-16.4-4.2-33.2-18.9-39.4Z" style="fill: #32bdb9;"/>
  <path d="M684.2,148c0,14-5.7,26.7-14.9,35.9-9.2,9.2-21.9,14.9-35.9,14.9h-100.8v199.6h19.3c17.8,0,32.2,14.4,32.2,32.2s-3.6,17-9.4,22.8c-5.8,5.8-13.9,9.4-22.8,9.4h-103.3c-17.8,0-32.2-14.4-32.2-32.2s3.6-16.9,9.4-22.8c5.8-5.8,13.9-9.4,22.8-9.4h18.3v-199.6h-99.8c-28,0-50.8-22.7-50.8-50.8s5.7-26.7,14.9-35.9c9.2-9.2,21.9-14.9,35.9-14.9h266.3c28,0,50.8,22.7,50.8,50.8Z" style="fill: #32bdb9;"/>
</svg>