<?xml version="1.0" encoding="utf-8"?>
<!-- Generator: Adobe Illustrator 27.7.0, SVG Export Plug-In . SVG Version: 6.00 Build 0)  -->
<svg version="1.1" id="Layer_1" xmlns="http://www.w3.org/2000/svg"  viewBox="0 0 60 60" height="60" width="60">
<style type="text/css">
	.st0{fill:#60B03F;}
</style>
<path class="st0" d="M2.5,5.68v48.64h55V5.68H2.5z M51.96,33.01c0,5.68-4.26,10.37-9.76,11.04v0.09h-1.36c0,0,0,0-0.01,0H26.71
	V20.98h5.43v18.71h7.78c2.48,0,4.49-2.01,4.49-4.49V24.35c0-1.24-0.5-2.36-1.31-3.17c-0.41-0.4-0.89-0.73-1.43-0.96
	c-0.54-0.23-1.13-0.35-1.75-0.35H23.23v24.28h-5.28V19.86H8.97v-4.42h32.06v0.01c6.05,0.11,10.92,5.05,10.92,11.12V33.01z"/>
</svg>
