<?xml version="1.0" encoding="UTF-8"?>
<svg xmlns="http://www.w3.org/2000/svg" version="1.1" viewBox="0 0 302.8 144">
  <defs>
    <style>
      .cls-1 {
        fill: #fff;
      }

      .cls-2 {
        fill: #41af4c;
      }
    </style>
  </defs>
  <!-- Generator: Adobe Illustrator 28.6.0, SVG Export Plug-In . SVG Version: 1.2.0 Build 709)  -->
  <g>
    <g id="Layer_2">
      <g>
        <rect class="cls-2" x="1.3" y="1.3" width="300.2" height="141.4" rx="70.7" ry="70.7"/>
        <g>
          <path class="cls-1" d="M69.9,40.2l21.1,21.2c.6.6.6,1.4,0,2l-4.6,4.6-23.1-23.3,4.6-4.6c.6-.6,1.4-.6,2,0h0Z"/>
          <path class="cls-1" d="M61.9,45.8l-3.4,14.6-30.2,29.9c-1.2,1.2-1.4,3.1-.4,4.1l8.1,8.2c1,1,2.9.9,4.1-.3l30.2-29.9,14.7-3.3-23.1-23.3h0ZM49,85.6c-1.3,1.3-3.2,1.4-4.3.4s-.9-3,.4-4.3l7.9-7.8c1.3-1.3,3.2-1.4,4.3-.4s.8,1.3.7,2.1c0,.8-.4,1.6-1.1,2.2l-7.9,7.8h0Z"/>
        </g>
        <g>
          <path class="cls-1" d="M128,86.7h-4v-22.1h-7.1v-3.6h18.3v3.6h-7.1v22.1h0Z"/>
          <path class="cls-1" d="M151.4,86.7l-.5-2.5h-.2c-.5.9-1.3,1.6-2.3,2.1s-2.1.8-3.4.8c-2.2,0-3.9-.6-5-1.8-1.1-1.2-1.6-2.9-1.6-5.3v-12.7h3.9v12c0,1.5.3,2.6.9,3.3.6.7,1.5,1.1,2.7,1.1s2.8-.5,3.6-1.6c.8-1,1.2-2.8,1.2-5.2v-9.7h3.9v19.4h-3.2Z"/>
          <path class="cls-1" d="M169.3,66.9c.8,0,1.4,0,1.9.2l-.4,3.8c-.6-.1-1.1-.2-1.7-.2-1.6,0-2.8.5-3.8,1.6s-1.5,2.5-1.5,4.2v10.2h-3.9v-19.4h3.1l.5,3.4h.2c.6-1.2,1.4-2.1,2.4-2.8s2-1,3.2-1h0Z"/>
          <path class="cls-1" d="M190.8,86.7h-3.9v-12c0-1.5-.3-2.6-.9-3.4s-1.5-1.1-2.7-1.1-2.9.5-3.6,1.5c-.8,1-1.1,2.8-1.1,5.2v9.7h-3.9v-19.4h3.1l.5,2.5h.2c.6-.9,1.3-1.6,2.4-2.1,1-.5,2.1-.8,3.4-.8,4.4,0,6.6,2.4,6.6,7.1v12.7h-.1Z"/>
          <path class="cls-1" d="M227.1,73.8c0,4.2-1,7.4-3,9.8-2,2.3-4.8,3.5-8.4,3.5s-6.5-1.2-8.4-3.5-2.9-5.6-2.9-9.8,1-7.5,3-9.8,4.8-3.4,8.5-3.4,6.4,1.2,8.4,3.5,3,5.6,3,9.8h-.2ZM208.6,73.8c0,3.2.6,5.6,1.8,7.2s3,2.5,5.4,2.5,4.1-.8,5.3-2.4,1.8-4,1.8-7.2-.6-5.5-1.8-7.2-3-2.4-5.3-2.4-4.2.8-5.4,2.4-1.8,4-1.8,7.2h0Z"/>
          <path class="cls-1" d="M241.1,70.4h-4.5v16.3h-3.9v-16.3h-3v-1.9l3-1.3v-1.3c0-2.3.5-4,1.5-5.1s2.6-1.7,4.7-1.7,2.7.2,4.1.7l-1,3.1c-1-.3-1.9-.5-2.8-.5s-1.5.3-1.9.9-.6,1.5-.6,2.6v1.3h4.5v3.1h-.1ZM253.5,70.4h-4.5v16.3h-3.9v-16.3h-3v-1.9l3-1.3v-1.3c0-2.3.5-4,1.5-5.1s2.6-1.7,4.7-1.7,2.7.2,4.1.7l-1,3.1c-1-.3-1.9-.5-2.8-.5s-1.5.3-1.9.9-.6,1.5-.6,2.6v1.3h4.5v3.1h-.1Z"/>
        </g>
      </g>
    </g>
    <metadata>
      <sfw xmlns="http://ns.adobe.com/SaveForWeb/1.0/">
        <slices/>
        <sliceSourceBounds x="100.5" y="179.53" width="300.2" height="141.4" bottomLeftOrigin="true"/>
      </sfw>
    </metadata>
  </g>
</svg>