<?xml version="1.0" encoding="utf-8"?>
<!-- Generator: Adobe Illustrator 27.7.0, SVG Export Plug-In . SVG Version: 6.00 Build 0)  -->
<svg version="1.1" id="Layer_2" xmlns="http://www.w3.org/2000/svg"  viewBox="0 0 60 60" height="60" width="60">
<style type="text/css">
	.st0{fill:#27ABE4;}
</style>
<path class="st0" d="M56,3L32.52,41.27l-0.53,0.85v0.01L29,46c0,0-1,2-3,2c-3.31,0-6-2.69-6-6c0-1.7,1.89-4.36,1.89-4.36l0.83-1.31
	h0.01L44,3H56z"/>
<path d="M25.82,51.96c-1.67,3.3-4.96,5.65-8.82,5.99C16.67,57.98,16.34,58,16,58C9.92,58,5,53.08,5,47V3h12v41c0,4.42,3.58,8,8,8
	C25.28,52,25.55,51.99,25.82,51.96z"/>
</svg>
