<?xml version="1.0" encoding="utf-8"?>
<!-- Generator: Adobe Illustrator 27.7.0, SVG Export Plug-In . SVG Version: 6.00 Build 0)  -->
<svg version="1.1" id="Layer_3" xmlns="http://www.w3.org/2000/svg"  viewBox="0 0 60 60" height="60" width="60">
<style type="text/css">
	.st0{fill:#FF4338;}
</style>
<path id="path6" class="st0" d="M13.17,47.22h33.47c-4.27,4.17-10.19,6.79-16.78,6.79C23.45,54.01,17.54,51.39,13.17,47.22
	L13.17,47.22z M6.48,25.1c5.82,0.49,9.89,4.75,9.89,9.8c0,3.69-2.23,7.08-5.53,9.12h-0.29c-2.81-3.88-4.46-8.73-4.46-14.07
	C5.99,28.3,6.19,26.75,6.48,25.1z M6.09,21.61c2.23-0.78,3.98-0.97,6.4-0.97c7.37,0,13.19,6.01,13.19,13.29
	c0,3.69-1.46,7.28-4.07,9.99h-5.72c2.23-2.23,3.78-5.34,3.78-8.92c0-6.89-5.53-12.61-13.58-12.8C5.99,22,5.99,21.71,6.09,21.61z
	 M12.69,17.63c-1.36,0-3.01,0.19-4.85,0.58c-0.1-0.19-0.1-0.49,0-0.58c2.72-1.16,6.01-1.84,9.51-1.84c9.8,0,17.85,8.15,17.85,17.27
	c0,3.98-1.46,7.86-3.98,10.86h-5.43c2.13-3.01,3.4-6.6,3.4-10.19C29.18,24.81,21.9,17.63,12.69,17.63L12.69,17.63z M18.21,12.78
	c-2.23,0-4.37,0.29-7.47,1.07c-0.1-0.19-0.1-0.49,0-0.58c3.49-1.46,7.57-2.33,12.03-2.33c12.42,0,21.83,9.6,21.83,20.86
	c0,4.17-1.36,8.54-3.98,12.03h-5.24c2.13-3.2,3.3-6.89,3.3-10.86C38.68,21.8,29.66,12.78,18.21,12.78L18.21,12.78z M53.91,30.05
	c0,5.14-1.65,9.89-4.46,13.87H44.7c2.23-3.59,3.4-7.95,3.4-12.03c0-13-10.48-23.86-24.35-23.86c-1.84,0-4.17,0.19-7.28,0.97
	c-0.1-0.19-0.1-0.49,0-0.58c4.27-1.65,8.34-2.33,12.8-2.33C43.34,5.99,53.91,16.86,53.91,30.05L53.91,30.05z M29.95,2.5
	C14.82,2.5,2.5,14.72,2.5,29.95c0,15.52,12.42,27.55,27.45,27.55c15.42,0,27.55-12.51,27.55-27.45C57.5,15.01,45.18,2.5,29.95,2.5z"
	/>
</svg>
