<?xml version="1.0" encoding="utf-8"?>
<!-- Generator: Adobe Illustrator 27.7.0, SVG Export Plug-In . SVG Version: 6.00 Build 0)  -->
<svg version="1.1" id="Layer_2" xmlns="http://www.w3.org/2000/svg"  viewBox="0 0 60 60" height="60" width="60">
<style type="text/css">
	.st0{fill:#E30613;}
</style>
<path id="path8239" class="st0" d="M51.34,44.42c-0.49,0.73-1.06,1.46-1.71,2.19c-1.38,1.54-3.01,3.01-4.79,4.22
	c-2.27,1.54-4.63,2.76-7.07,3.66c-2.11,0.73-3.98,1.14-5.6,1.22H31.6c-0.81,0-1.38-0.08-1.71-0.32l-0.16-0.08l-0.16-0.16v-0.08
	c0-0.08,0-0.24,0.08-0.41c0.16-0.41,0.41-0.73,0.73-1.14c0.08-0.08,0.24-0.24,0.32-0.41c1.22-0.32,2.44-0.73,3.82-1.14
	c1.22,0.24,2.52,0.32,3.66,0.24c1.46-0.16,2.84-0.57,4.06-1.22c1.46-0.81,2.76-1.87,3.82-3.17c0.65-0.89,1.22-1.79,1.62-2.84
	c2.19-1.71,4.06-3.49,5.52-5.28l0.73-0.97C53.37,40.69,52.56,42.63,51.34,44.42 M42.97,48.08c0.49-0.24,0.89-0.57,1.38-0.81
	c-0.65,0.81-1.46,1.54-2.27,2.11c-1.14,0.73-2.36,1.3-3.57,1.54c-0.57,0.08-1.06,0.16-1.62,0.24
	C38.91,50.27,41.02,49.21,42.97,48.08 M57.84,27.69c0-2.36-0.57-4.63-1.71-6.74c-0.97-1.87-2.44-3.66-4.22-5.28
	c-0.41-2.19-1.54-4.22-3.25-6.09c-1.38-1.46-3.09-2.76-5.2-3.9c-1.62-0.89-3.41-1.62-5.28-2.19c-1.54-0.49-3.09-0.73-4.55-0.89
	c-1.38-0.16-2.52-0.08-3.57,0.08C29,2.91,28.03,3.24,27.13,3.73l-0.16,0.08c-1.22-0.16-2.44-0.16-3.57-0.08h-0.32
	c-1.14,0.08-3.49,0.41-3.33,1.54c0,0,0,0.65,1.46,1.14l2.03-1.22c-0.16,0-0.32-0.08-0.49-0.08c0.65-0.08,1.3-0.16,1.79-0.16h0.41
	c-0.16,0.08-0.24,0.16-0.41,0.24l-0.65,0.41c-1.22,0.73-1.62,1.06-2.92,1.79c-0.81,0.49-1.54,0.97-2.36,1.38
	c-1.54,0.81-3.09,1.62-4.71,2.44c-1.3,0.57-2.6,1.22-4.31,1.95l-0.16,0.08c-0.41,0.16-0.81,0.32-1.14,0.49H8.21
	c-0.41,0.16-0.89,0.41-1.14,0.89l-0.08,0.32v0.32c0,0.08,0.08,0.16,0.08,0.16l0.24,0.24l0.24,0.16h0.08
	c0.24,0.08,0.57,0.08,0.89,0.08h1.46c0.57,0,1.14-0.08,1.62-0.08c2.68-0.08,5.12-0.08,7.47,0c2.27,0.08,4.55,0.32,6.82,0.57
	l3.41,0.49c0.73-0.65,1.3-1.14,1.71-1.62c-2.36-0.49-4.71-0.81-6.99-1.06c-2.36-0.24-4.87-0.41-7.39-0.41h-0.89
	c-1.22,0-2.52,0-3.74,0.08c1.22-0.57,2.27-1.14,3.33-1.62c1.54-0.81,3.09-1.71,4.63-2.68c1.14-0.73,2.36-1.54,3.74-2.52l0.24-0.16
	c1.62,0.32,3.57,0.65,5.52,1.06l4.14,0.97c-0.57-1.38-2.27-2.19-3.25-2.6C29,6.08,27.54,5.76,25.83,5.51
	c0.41-0.32,0.81-0.57,1.22-0.73c1.38,0.16,2.52,0.41,3.57,0.81c0.81,0.32,1.46,0.65,2.03,1.06c0.08,0.08,0.24,0.16,0.32,0.24
	c0.97,0.81,1.54,1.87,1.54,2.92c0.08,0.89-0.16,1.87-0.65,2.84c-0.24,0.57-0.65,1.14-1.06,1.71c-0.08,0.16-0.81,1.22-2.44,2.6
	c-1.54,1.46-3.41,2.76-5.69,4.14c-0.81,0.49-1.54,0.89-2.36,1.3c-0.97,0.49-1.95,0.97-2.76,1.3c-1.3,0.57-3.49,1.54-6.25,2.36
	c-1.46,0.41-2.84,0.81-4.22,1.06c-1.06,0.24-2.36,0.41-3.66,0.49c1.46-0.65,3.09-1.06,4.79-1.3c3.25-0.73,6.01-1.79,7.8-2.6
	c-1.71,0-3.41,0.08-5.2,0.24c-2.92,0.32-5.28,0.73-7.39,1.46c-1.22,0.41-2.84,1.06-3.25,2.11c-0.08,0.57,0,0.97,0.16,1.38
	c0.32,0.65,0.97,0.97,2.03,1.14c0.81,0.08,1.71,0.08,2.92-0.08c2.19-0.24,4.55-0.73,7.23-1.62c2.36-0.73,4.47-1.62,6.5-2.52
	c2.27,0.08,4.55,0.32,6.74,0.73c2.36,0.41,4.39,0.97,6.34,1.71c2.19,0.81,4.06,1.71,5.6,2.76c0.57-0.41,1.06-0.81,1.46-1.14
	c-0.08,0-0.08-0.08-0.16-0.08c-1.95-1.3-4.22-2.44-6.66-3.33c-2.03-0.73-4.22-1.3-6.66-1.79c-1.14-0.24-2.27-0.41-3.49-0.49
	c1.95-1.06,3.66-2.11,5.2-3.33c1.38-1.06,2.52-2.11,3.57-3.17c2.76,0.73,5.12,1.46,7.23,2.36c2.52,1.06,4.71,2.27,6.58,3.66
	l0.16,0.08c0.41-0.57,0.73-1.22,0.97-1.71c-1.71-1.22-3.57-2.27-5.6-3.25c-2.27-1.06-4.79-1.95-7.55-2.68
	c-0.08,0-0.16-0.08-0.32-0.08c1.22-1.71,1.95-3.33,2.11-4.87c0.08-0.49,0.08-0.89,0-1.38c2.36,0.73,4.63,1.62,6.74,2.6
	s3.9,2.03,5.44,3.25l0.08,0.08c-0.41-1.71-1.3-3.01-1.79-3.57c-0.97-0.57-2.03-1.06-3.17-1.62c-1.95-0.89-4.14-1.71-6.5-2.44
	c-0.49-0.16-1.06-0.32-1.54-0.41h-0.08c-0.73-1.3-1.87-2.03-2.76-2.52c-0.97-0.49-2.11-0.89-3.41-1.14
	c0.57-0.08,1.06-0.16,1.62-0.16h0.16c0.49,0,1.06,0,1.62,0.08c0.16,0,0.24,0,0.41,0.08c1.38,0.16,2.76,0.49,4.31,0.97
	c1.79,0.57,3.49,1.3,4.96,2.19c1.87,1.06,3.41,2.27,4.63,3.66c0.41,0.49,0.81,0.97,1.14,1.46c0.08,0.08,0.16,0.16,0.16,0.32
	c0,0,0,0.08,0.08,0.08c0.57,0.97,1.14,2.27,1.22,3.82c0.16,1.62-0.16,3.25-0.65,4.55c0,0.08-0.65,1.87-1.79,3.49
	c-1.14,1.71-2.68,3.41-4.55,5.04c-0.41,0.41-1.62,1.46-3.33,2.6c-1.62,1.14-3.33,2.19-5.12,3.17c-1.38,0.81-2.84,1.46-4.63,2.27
	c-0.73,0.32-1.79,0.73-3.01,1.14c-1.95,0.73-3.9,1.3-5.85,1.79c-2.84,0.65-5.36,1.06-7.8,1.22c-0.97,0.08-1.87,0.08-2.76,0
	c-1.3-0.08-2.68-0.24-3.49-0.97l-0.16-0.16v-0.16c0.16-0.49,0.57-0.81,0.97-1.14c0.57-0.41,1.22-0.73,2.03-1.06
	c1.87-0.73,3.98-1.22,6.42-1.46c2.27-0.16,4.63-0.08,6.82,0.24c1.14,0.16,2.27,0.49,3.41,0.81c0.81-0.24,1.62-0.57,2.19-0.81
	c-1.38-0.57-2.92-1.06-4.55-1.46c-2.27-0.49-4.71-0.65-7.15-0.57c-2.52,0.08-4.87,0.49-6.99,1.14c-1.71,0.57-3.57,1.3-4.71,2.76
	c-0.49,0.65-0.73,1.38-0.57,2.19c0.16,0.97,0.97,1.62,1.38,1.87c1.06,0.65,2.36,0.97,3.25,1.06c0.97,0.16,2.03,0.24,3.17,0.24H13
	c2.36-0.08,4.87-0.41,7.88-1.06c2.52-0.57,5.12-1.3,7.8-2.36c0.73-0.32,1.54-0.57,2.27-0.89c1.22,0.81,2.11,1.71,2.68,2.68
	c0.57,0.97,0.81,1.87,0.81,2.84c0,0.89-0.24,1.79-0.73,2.6c-0.08,0.24-0.24,0.41-0.41,0.65c0.57-0.16,1.14-0.41,1.71-0.65l0.24-0.49
	c0.41-1.06,0.57-2.19,0.41-3.25c-0.16-1.22-0.73-2.44-1.62-3.49c-0.41-0.57-0.97-1.06-1.54-1.54c2.6-1.22,4.96-2.52,7.07-3.9
	c1.06-0.73,2.11-1.46,3.09-2.19c1.62,1.54,2.84,3.25,3.41,5.12c0.32,0.97,0.49,1.95,0.49,3.01c0.65-0.57,1.22-1.06,1.62-1.46
	c-0.16-1.46-0.65-2.84-1.46-4.22c-0.65-1.22-1.62-2.36-2.76-3.49c2.19-1.87,3.98-3.82,5.28-5.85c0.08-0.08,0.16-0.24,0.24-0.32
	c1.62,1.62,2.84,3.41,3.66,5.2v0.08c0.16,0.32,0.24,0.73,0.41,1.06c0.57-1.3,0.81-2.44,0.89-3.17c-0.65-1.3-1.54-2.52-2.52-3.57
	c-0.41-0.49-0.89-0.89-1.38-1.38c0.89-1.87,1.46-3.66,1.62-5.36c0.41,0.49,0.81,0.97,1.14,1.46c1.22,1.87,2.03,3.82,2.19,5.69
	c0.08,0.73,0.08,1.38,0.08,2.11c0,0.08,0,0.81-0.24,1.95c0,0.16-0.08,0.41-0.16,0.57c-0.24,0.89-0.65,2.03-1.22,3.25
	c-0.08,0.08-0.08,0.24-0.16,0.32s-0.08,0.24-0.16,0.32c-1.06,1.95-2.52,3.9-4.39,5.69c-0.24,0.24-0.49,0.49-0.81,0.73
	c-0.65,0.65-1.62,1.46-2.52,2.11c-1.79,1.38-3.74,2.6-5.77,3.66c-1.54,0.81-3.17,1.62-4.87,2.27c-1.79,0.73-3.49,1.3-4.79,1.62
	c-2.44,0.65-4.79,1.14-7.07,1.38c-2.11,0.16-3.74,0.16-5.28-0.08c-0.97-0.16-1.71-0.41-2.36-0.73c-0.16-0.08-0.32-0.24-0.41-0.32
	c0-0.08-0.08-0.08-0.08-0.16V50.6c0.32-0.81,1.38-1.22,2.44-1.54c0.97-0.32,2.19-0.49,3.49-0.49h0.16c1.22,0,2.44,0.16,3.74,0.49
	c1.22,0.24,2.44,0.65,3.49,1.06c0.08,0,0.08,0.08,0.16,0.08c0.49-0.08,1.06-0.24,1.79-0.49c-0.08,0-0.16-0.08-0.32-0.08
	c-0.49-0.16-0.97-0.41-1.46-0.57c-1.38-0.57-2.52-0.89-3.66-1.22c-1.38-0.32-2.76-0.57-4.06-0.57c-1.38-0.08-2.76,0.08-4.06,0.41
	c-1.38,0.32-2.36,0.89-3.09,1.54c-0.49,0.49-0.73,1.14-0.73,1.79c0,0.65,0.32,1.3,0.89,1.79c1.46,1.3,3.82,1.62,5.69,1.71
	c2.36,0.16,4.87-0.08,7.64-0.57c0.32-0.08,0.73-0.16,1.06-0.24c-0.24,0.41-0.49,0.81-0.57,1.3c-0.08,0.73,0.32,1.46,1.14,1.87
	c0.73,0.41,1.71,0.65,3.01,0.65h0.73c2.03-0.08,4.14-0.57,6.5-1.46c2.36-0.81,4.55-2.03,6.66-3.41c1.87-1.3,3.66-2.84,5.12-4.55
	c1.54-1.79,2.84-3.74,3.66-5.77c0.89-2.03,1.3-4.31,1.22-6.5c0-0.32,0-0.65-0.08-0.97C57.27,32.48,57.84,30.04,57.84,27.69"/>
</svg>
