<svg xmlns="http://www.w3.org/2000/svg" width="2048" height="1496" viewBox="0 0 2048 1496" version="1.1"><path d="M 1239 563.637 C 1212.608 567.491, 1192.643 581.779, 1176.500 608.368 C 1175.592 609.864, 1174.902 609.767, 1169 607.312 C 1160.435 603.750, 1144.386 602.874, 1135.424 605.479 C 1125.632 608.326, 1117.943 612.848, 1110.934 619.885 C 1099.389 631.474, 1092.606 647.149, 1091.325 665.200 C 1090.781 672.870, 1090.907 674, 1092.305 674 C 1093.392 674, 1094.091 672.791, 1094.474 670.250 C 1098.136 645.915, 1106.304 631.431, 1121.375 622.544 C 1131.343 616.666, 1139.089 614.537, 1150.500 614.538 C 1160.031 614.538, 1170.048 616.651, 1171.477 618.962 C 1171.752 619.407, 1171.051 623.310, 1169.920 627.636 C 1166.971 638.912, 1166.407 661.103, 1169.112 659.431 C 1169.600 659.129, 1170 656.640, 1170 653.899 C 1170 641.693, 1175.621 624.132, 1183.671 611.190 C 1201.144 583.096, 1230.830 569.304, 1260.500 575.495 C 1269.489 577.371, 1283.784 584.487, 1291.702 591.028 C 1303.528 600.797, 1314.422 618.114, 1319.102 634.579 C 1320.340 638.936, 1321.405 642.594, 1321.469 642.710 C 1321.533 642.825, 1325.166 641.768, 1329.543 640.361 C 1339.357 637.205, 1353.914 636.782, 1363.863 639.365 C 1377.817 642.987, 1393.968 653.844, 1403.645 666.107 C 1419.752 686.520, 1427.206 709.311, 1427.064 737.720 C 1426.907 769.277, 1417.103 794.629, 1397.250 814.816 C 1392.162 819.989, 1388 824.622, 1388 825.111 C 1388 826.813, 1389.820 825.971, 1396.140 821.341 C 1432.681 794.575, 1448.331 740.289, 1433.282 692.500 C 1422.722 658.967, 1397.406 633.161, 1367.500 625.446 C 1359.968 623.503, 1342.983 622.903, 1334.869 624.293 C 1330.370 625.064, 1330.219 625.008, 1329.559 622.293 C 1328.195 616.687, 1320.892 602.998, 1316.040 596.952 C 1301.034 578.254, 1280.531 567.261, 1254.602 564.009 C 1246.601 563.006, 1243.784 562.939, 1239 563.637 M 677.248 581.939 C 672.160 582.341, 667.700 582.966, 667.338 583.329 C 666.722 583.945, 660.687 618.526, 629.521 800.019 C 622.672 839.904, 615.278 882.805, 613.091 895.353 C 608.931 919.218, 608.912 921.812, 612.886 923.939 C 615.433 925.302, 670.398 925.392, 672.929 924.038 C 673.917 923.509, 675.225 921.822, 675.835 920.288 C 676.813 917.829, 682.644 884.959, 696.108 806 C 700.584 779.751, 701.725 775.432, 706.743 765.758 C 711.379 756.819, 721.649 747.023, 729.442 744.107 C 735.773 741.739, 746.869 741.281, 753.477 743.115 C 763.014 745.763, 768.786 756.864, 767.689 770.450 C 767.377 774.328, 761.678 809.159, 755.026 847.854 C 748.374 886.549, 743.206 919.074, 743.542 920.131 C 745.025 924.803, 746.819 925.048, 777.491 924.766 L 806.285 924.500 808.154 921.996 C 809.469 920.234, 811.190 912.672, 813.957 896.496 C 816.121 883.848, 821.556 852.350, 826.035 826.500 C 830.514 800.650, 834.850 774.775, 835.670 769 C 838.296 750.501, 835.775 730.135, 829.234 717.015 C 825.635 709.795, 815.055 699.243, 807.397 695.234 C 797.395 689.999, 789.865 688.733, 772 689.285 C 762.019 689.594, 754.363 690.355, 750.500 691.424 C 739.357 694.508, 725.314 702.759, 715.750 711.844 C 713.457 714.022, 712.005 714.841, 712.014 713.953 C 712.022 713.154, 714.953 695.625, 718.529 675 C 728.606 616.866, 728.480 617.806, 727.244 609.819 C 723.772 587.388, 709.442 579.397, 677.248 581.939 M 917.780 581.986 C 906.231 584.040, 894.226 592.708, 889.541 602.375 C 886.481 608.688, 884.580 620.481, 885.471 627.615 C 886.332 634.506, 891.100 644.002, 895.746 648.082 C 909.329 660.007, 934.832 657.670, 948.092 643.285 C 961.221 629.041, 961.632 602.786, 948.923 590.077 C 942.150 583.304, 929.234 579.949, 917.780 581.986 M 1004.681 581.963 C 998.102 582.354, 993.576 583.068, 993.133 583.785 C 992.732 584.434, 987.320 614.560, 981.107 650.732 C 974.893 686.905, 961.999 761.864, 952.452 817.308 C 939.751 891.068, 935.337 918.756, 935.999 920.498 C 936.497 921.807, 937.796 923.356, 938.886 923.939 C 940.151 924.616, 951.225 925, 969.480 925 L 998.091 925 1000.545 922.545 C 1001.895 921.195, 1003 919.601, 1003 919.002 C 1003 917.599, 1020.993 812.672, 1021.282 812.390 C 1021.402 812.273, 1028.647 825.750, 1037.383 842.339 C 1063.623 892.170, 1071.981 906.781, 1077.500 912.473 C 1083.478 918.638, 1091.155 922.556, 1100 923.956 C 1106.812 925.034, 1160 925.434, 1160 924.407 C 1160 924.081, 1157.624 921.189, 1154.721 917.981 C 1148.259 910.841, 1125.048 870.846, 1090.164 806.746 L 1085.944 798.991 1105.309 778.246 C 1156.027 723.912, 1170.037 708.431, 1169.768 707.021 C 1169.315 704.651, 1156.112 695.208, 1150 692.883 C 1143 690.221, 1130.076 689.335, 1121.792 690.950 C 1113.593 692.548, 1105.235 697.057, 1098.707 703.402 C 1094.191 707.791, 1050.899 756.859, 1032.206 778.776 C 1028.793 782.777, 1026 785.517, 1026 784.863 C 1026 784.209, 1032.127 748.310, 1039.615 705.087 C 1054.675 618.160, 1055.707 609.487, 1052.118 599.989 C 1049.668 593.505, 1044.145 587.418, 1038.392 584.859 C 1034.252 583.018, 1022.630 580.921, 1018 581.179 C 1016.625 581.256, 1010.631 581.609, 1004.681 581.963 M 1259.520 690.069 C 1219.314 696.232, 1183.800 721.677, 1164.647 758.041 C 1148.286 789.104, 1142.054 830.488, 1148.915 862.500 C 1157.848 904.177, 1186.269 927.820, 1231.074 930.846 C 1246.213 931.868, 1267.668 930.629, 1278.220 928.123 C 1302.972 922.244, 1325.712 908.246, 1332.439 894.746 C 1335.327 888.951, 1335.859 880.672, 1333.797 873.616 C 1332.327 868.583, 1321.702 857.590, 1314.879 854.043 L 1310.258 851.640 1303.209 858.788 C 1295.204 866.905, 1283.615 874.872, 1275.207 878.037 C 1262.779 882.717, 1246.395 883.142, 1235.753 879.062 C 1221.910 873.754, 1211.052 857.444, 1211.012 841.898 L 1211 837.297 1231.750 836.701 C 1280.176 835.310, 1310.332 825.978, 1331.562 805.811 C 1345.218 792.840, 1351.565 780.351, 1354.055 761.553 C 1356.941 739.767, 1351.451 722.118, 1337.510 708.368 C 1329.673 700.638, 1318.851 694.503, 1307.500 691.357 C 1300.483 689.412, 1269.272 688.574, 1259.520 690.069 M 890.122 694.125 C 883.865 694.563, 878.630 695.052, 878.489 695.211 C 878.348 695.370, 874.594 716.650, 870.146 742.500 C 865.698 768.350, 857.096 818.331, 851.030 853.568 C 844.963 888.805, 840 918.188, 840 918.863 C 840 919.538, 841.105 921.195, 842.455 922.545 L 844.909 925 873.020 925 C 890.269 925, 901.870 924.605, 903.043 923.977 C 904.094 923.414, 905.441 922.044, 906.036 920.932 C 906.631 919.820, 911.600 892.943, 917.077 861.205 C 922.555 829.467, 929.996 786.400, 933.613 765.500 C 940.749 724.265, 941.089 719.015, 937.127 711.248 C 929.546 696.389, 917.978 692.175, 890.122 694.125 M 1259.760 739.483 C 1245.789 743.328, 1233.716 754.288, 1225.140 770.911 C 1221.402 778.156, 1216 792.730, 1216 795.568 C 1216 797.851, 1222.902 798.389, 1237 797.207 C 1253.128 795.856, 1259.784 794.242, 1270.737 789.027 C 1286.096 781.714, 1294.125 771.301, 1294.125 758.695 C 1294.125 748.632, 1290.220 742.268, 1282.316 739.449 C 1277.540 737.746, 1266.011 737.763, 1259.760 739.483" stroke="none" fill="#fafbfb" fill-rule="evenodd" /><path d="M -0 748 L -0 1496.001 1024.250 1495.750 L 2048.500 1495.500 2048.751 747.750 L 2049.001 0 1024.501 0 L 0 0 -0 748 M 0.497 748.500 C 0.497 1159.900, 0.611 1328.050, 0.750 1122.168 C 0.889 916.285, 0.889 579.685, 0.750 374.168 C 0.611 168.650, 0.497 337.100, 0.497 748.500 M 1239 563.637 C 1212.608 567.491, 1192.643 581.779, 1176.500 608.368 C 1175.592 609.864, 1174.902 609.767, 1169 607.312 C 1160.435 603.750, 1144.386 602.874, 1135.424 605.479 C 1125.632 608.326, 1117.943 612.848, 1110.934 619.885 C 1099.389 631.474, 1092.606 647.149, 1091.325 665.200 C 1090.781 672.870, 1090.907 674, 1092.305 674 C 1093.392 674, 1094.091 672.791, 1094.474 670.250 C 1098.136 645.915, 1106.304 631.431, 1121.375 622.544 C 1131.343 616.666, 1139.089 614.537, 1150.500 614.538 C 1160.031 614.538, 1170.048 616.651, 1171.477 618.962 C 1171.752 619.407, 1171.051 623.310, 1169.920 627.636 C 1166.971 638.912, 1166.407 661.103, 1169.112 659.431 C 1169.600 659.129, 1170 656.640, 1170 653.899 C 1170 641.693, 1175.621 624.132, 1183.671 611.190 C 1201.144 583.096, 1230.830 569.304, 1260.500 575.495 C 1269.489 577.371, 1283.784 584.487, 1291.702 591.028 C 1303.528 600.797, 1314.422 618.114, 1319.102 634.579 C 1320.340 638.936, 1321.405 642.594, 1321.469 642.710 C 1321.533 642.825, 1325.166 641.768, 1329.543 640.361 C 1339.357 637.205, 1353.914 636.782, 1363.863 639.365 C 1377.817 642.987, 1393.968 653.844, 1403.645 666.107 C 1419.752 686.520, 1427.206 709.311, 1427.064 737.720 C 1426.907 769.277, 1417.103 794.629, 1397.250 814.816 C 1392.162 819.989, 1388 824.622, 1388 825.111 C 1388 826.813, 1389.820 825.971, 1396.140 821.341 C 1432.681 794.575, 1448.331 740.289, 1433.282 692.500 C 1422.722 658.967, 1397.406 633.161, 1367.500 625.446 C 1359.968 623.503, 1342.983 622.903, 1334.869 624.293 C 1330.370 625.064, 1330.219 625.008, 1329.559 622.293 C 1328.195 616.687, 1320.892 602.998, 1316.040 596.952 C 1301.034 578.254, 1280.531 567.261, 1254.602 564.009 C 1246.601 563.006, 1243.784 562.939, 1239 563.637 M 677.248 581.939 C 672.160 582.341, 667.700 582.966, 667.338 583.329 C 666.722 583.945, 660.687 618.526, 629.521 800.019 C 622.672 839.904, 615.278 882.805, 613.091 895.353 C 608.931 919.218, 608.912 921.812, 612.886 923.939 C 615.433 925.302, 670.398 925.392, 672.929 924.038 C 673.917 923.509, 675.225 921.822, 675.835 920.288 C 676.813 917.829, 682.644 884.959, 696.108 806 C 700.584 779.751, 701.725 775.432, 706.743 765.758 C 711.379 756.819, 721.649 747.023, 729.442 744.107 C 735.773 741.739, 746.869 741.281, 753.477 743.115 C 763.014 745.763, 768.786 756.864, 767.689 770.450 C 767.377 774.328, 761.678 809.159, 755.026 847.854 C 748.374 886.549, 743.206 919.074, 743.542 920.131 C 745.025 924.803, 746.819 925.048, 777.491 924.766 L 806.285 924.500 808.154 921.996 C 809.469 920.234, 811.190 912.672, 813.957 896.496 C 816.121 883.848, 821.556 852.350, 826.035 826.500 C 830.514 800.650, 834.850 774.775, 835.670 769 C 838.296 750.501, 835.775 730.135, 829.234 717.015 C 825.635 709.795, 815.055 699.243, 807.397 695.234 C 797.395 689.999, 789.865 688.733, 772 689.285 C 762.019 689.594, 754.363 690.355, 750.500 691.424 C 739.357 694.508, 725.314 702.759, 715.750 711.844 C 713.457 714.022, 712.005 714.841, 712.014 713.953 C 712.022 713.154, 714.953 695.625, 718.529 675 C 728.606 616.866, 728.480 617.806, 727.244 609.819 C 723.772 587.388, 709.442 579.397, 677.248 581.939 M 917.780 581.986 C 906.231 584.040, 894.226 592.708, 889.541 602.375 C 886.481 608.688, 884.580 620.481, 885.471 627.615 C 886.332 634.506, 891.100 644.002, 895.746 648.082 C 909.329 660.007, 934.832 657.670, 948.092 643.285 C 961.221 629.041, 961.632 602.786, 948.923 590.077 C 942.150 583.304, 929.234 579.949, 917.780 581.986 M 1004.681 581.963 C 998.102 582.354, 993.576 583.068, 993.133 583.785 C 992.732 584.434, 987.320 614.560, 981.107 650.732 C 974.893 686.905, 961.999 761.864, 952.452 817.308 C 939.751 891.068, 935.337 918.756, 935.999 920.498 C 936.497 921.807, 937.796 923.356, 938.886 923.939 C 940.151 924.616, 951.225 925, 969.480 925 L 998.091 925 1000.545 922.545 C 1001.895 921.195, 1003 919.601, 1003 919.002 C 1003 917.599, 1020.993 812.672, 1021.282 812.390 C 1021.402 812.273, 1028.647 825.750, 1037.383 842.339 C 1063.623 892.170, 1071.981 906.781, 1077.500 912.473 C 1083.478 918.638, 1091.155 922.556, 1100 923.956 C 1106.812 925.034, 1160 925.434, 1160 924.407 C 1160 924.081, 1157.624 921.189, 1154.721 917.981 C 1148.259 910.841, 1125.048 870.846, 1090.164 806.746 L 1085.944 798.991 1105.309 778.246 C 1156.027 723.912, 1170.037 708.431, 1169.768 707.021 C 1169.315 704.651, 1156.112 695.208, 1150 692.883 C 1143 690.221, 1130.076 689.335, 1121.792 690.950 C 1113.593 692.548, 1105.235 697.057, 1098.707 703.402 C 1094.191 707.791, 1050.899 756.859, 1032.206 778.776 C 1028.793 782.777, 1026 785.517, 1026 784.863 C 1026 784.209, 1032.127 748.310, 1039.615 705.087 C 1054.675 618.160, 1055.707 609.487, 1052.118 599.989 C 1049.668 593.505, 1044.145 587.418, 1038.392 584.859 C 1034.252 583.018, 1022.630 580.921, 1018 581.179 C 1016.625 581.256, 1010.631 581.609, 1004.681 581.963 M 1259.520 690.069 C 1219.314 696.232, 1183.800 721.677, 1164.647 758.041 C 1148.286 789.104, 1142.054 830.488, 1148.915 862.500 C 1157.848 904.177, 1186.269 927.820, 1231.074 930.846 C 1246.213 931.868, 1267.668 930.629, 1278.220 928.123 C 1302.972 922.244, 1325.712 908.246, 1332.439 894.746 C 1335.327 888.951, 1335.859 880.672, 1333.797 873.616 C 1332.327 868.583, 1321.702 857.590, 1314.879 854.043 L 1310.258 851.640 1303.209 858.788 C 1295.204 866.905, 1283.615 874.872, 1275.207 878.037 C 1262.779 882.717, 1246.395 883.142, 1235.753 879.062 C 1221.910 873.754, 1211.052 857.444, 1211.012 841.898 L 1211 837.297 1231.750 836.701 C 1280.176 835.310, 1310.332 825.978, 1331.562 805.811 C 1345.218 792.840, 1351.565 780.351, 1354.055 761.553 C 1356.941 739.767, 1351.451 722.118, 1337.510 708.368 C 1329.673 700.638, 1318.851 694.503, 1307.500 691.357 C 1300.483 689.412, 1269.272 688.574, 1259.520 690.069 M 890.122 694.125 C 883.865 694.563, 878.630 695.052, 878.489 695.211 C 878.348 695.370, 874.594 716.650, 870.146 742.500 C 865.698 768.350, 857.096 818.331, 851.030 853.568 C 844.963 888.805, 840 918.188, 840 918.863 C 840 919.538, 841.105 921.195, 842.455 922.545 L 844.909 925 873.020 925 C 890.269 925, 901.870 924.605, 903.043 923.977 C 904.094 923.414, 905.441 922.044, 906.036 920.932 C 906.631 919.820, 911.600 892.943, 917.077 861.205 C 922.555 829.467, 929.996 786.400, 933.613 765.500 C 940.749 724.265, 941.089 719.015, 937.127 711.248 C 929.546 696.389, 917.978 692.175, 890.122 694.125 M 1259.760 739.483 C 1245.789 743.328, 1233.716 754.288, 1225.140 770.911 C 1221.402 778.156, 1216 792.730, 1216 795.568 C 1216 797.851, 1222.902 798.389, 1237 797.207 C 1253.128 795.856, 1259.784 794.242, 1270.737 789.027 C 1286.096 781.714, 1294.125 771.301, 1294.125 758.695 C 1294.125 748.632, 1290.220 742.268, 1282.316 739.449 C 1277.540 737.746, 1266.011 737.763, 1259.760 739.483" stroke="none" fill="#2fbcbd" fill-rule="evenodd" /></svg>