<?xml version="1.0" encoding="utf-8"?>
<!-- Generator: Adobe Illustrator 27.7.0, SVG Export Plug-In . SVG Version: 6.00 Build 0)  -->
<svg version="1.1" id="Layer_1" xmlns="http://www.w3.org/2000/svg" xmlns:xlink="http://www.w3.org/1999/xlink" x="0px" y="0px"
	 viewBox="0 0 2048 1536" style="enable-background:new 0 0 2048 1536;" xml:space="preserve">
<style type="text/css">
	.st0{fill:url(#SVGID_1_);}
	
		.st1{clip-path:url(#SVGID_00000177482215833876952650000000301255316594654386_);fill-rule:evenodd;clip-rule:evenodd;fill:#FFFFFF;}
</style>
<g>
	<linearGradient id="SVGID_1_" gradientUnits="userSpaceOnUse" x1="-2.8973" y1="175.1206" x2="2122.7322" y2="1402.3534">
		<stop  offset="0" style="stop-color:#62C29B"/>
		<stop  offset="0.25" style="stop-color:#33BEBE"/>
		<stop  offset="0.75" style="stop-color:#33BEBE"/>
		<stop  offset="1" style="stop-color:#2EBCEE"/>
	</linearGradient>
	<rect class="st0" width="2048" height="1536"/>
	<g>
		<defs>
			<rect id="SVGID_00000054951524154045236040000005227072907158724511_" x="594.19" y="368.48" width="879.1" height="758.71"/>
		</defs>
		<clipPath id="SVGID_00000109725863369239998470000004845481380955876996_">
			<use xlink:href="#SVGID_00000054951524154045236040000005227072907158724511_"  style="overflow:visible;"/>
		</clipPath>
		
			<path style="clip-path:url(#SVGID_00000109725863369239998470000004845481380955876996_);fill-rule:evenodd;clip-rule:evenodd;fill:#FFFFFF;" d="
			M1306.43,805.93c-7.27,10.17-16.43,18.21-27.47,24.11c-11.05,5.9-23.11,9.88-36.19,11.94c-13.08,2.07-25.44,3.1-37.06,3.1h-7.85
			c-2.33,0-4.65-0.15-6.98-0.44v2.65c0,6.78,1.09,12.68,3.27,17.69c2.18,5.02,4.94,9.15,8.29,12.38c3.34,3.25,7.12,5.68,11.34,7.3
			c4.21,1.63,8.35,2.43,12.43,2.43c11.92,0,22.09-2.8,30.52-8.4c8.43-5.6,15.55-12.23,21.37-19.9
			c14.83,7.67,22.24,16.96,22.24,27.86c0,6.19-1.74,11.5-5.23,15.92c-3.49,4.42-7.27,8.11-11.33,11.06
			c-6.4,4.42-14.61,8.55-24.64,12.38c-10.03,3.83-23.33,5.75-39.9,5.75c-15.99,0-29.36-2.43-40.12-7.3
			c-10.76-4.86-19.48-11.35-26.16-19.46c-6.69-8.11-11.49-17.47-14.39-28.09c-2.91-10.62-4.36-21.67-4.36-33.17
			c0-17.98,2.76-35.16,8.28-51.53c5.52-16.37,13.37-30.59,23.55-42.68c10.17-12.09,22.68-21.74,37.5-28.97
			c14.82-7.22,31.68-10.84,50.58-10.84c10.17,0,19.19,1.48,27.04,4.42c7.85,2.95,14.46,6.93,19.84,11.94
			c5.37,5.02,9.44,10.91,12.21,17.69c2.76,6.79,4.14,14.15,4.14,22.11C1317.33,782.42,1313.69,795.75,1306.43,805.93
			 M1260.21,759.93c-2.91-3.68-8-5.53-15.26-5.53c-12.51,0-23.05,5.02-31.62,15.04c-8.58,10.03-14.76,23.3-18.53,39.81
			c2.62,0.3,4.87,0.44,6.76,0.44h6.32c6.68,0,13.37-0.74,20.06-2.21c6.68-1.47,12.79-3.76,18.31-6.86c5.52-3.09,9.96-6.93,13.3-11.5
			c3.34-4.57,5.02-9.95,5.02-16.14C1264.57,767.96,1263.11,763.61,1260.21,759.93 M1126.34,895.27
			c6.88,12.71,13.37,25.37,20.93,30.37c-9.69,0.04-35.78,0-38.1,0c-13.59,0-27.02,0.16-38.86-15.26
			c-6.79-10.41-43.38-82.95-46.06-88.91l-16.06,97.57c-0.52,3.65-2.93,6.63-6.54,6.63h-46.28c-3.61,0-6.54-2.97-6.54-6.63
			l50.49-305.86c3.49-0.59,19.46-1.65,22.37-1.65c11.62,0,19.91,2.87,24.85,8.62c4.94,5.75,6.68,11.69,6.68,20.23
			c0,1.77-0.75,9.96-1.03,11.72l-24.46,148.27c1.85-3.64,61.11-73.41,61.11-73.41c5.23-5.89,10.39-10.02,15.48-12.38
			c5.08-2.36,11.12-3.78,18.1-3.54c7.56,0,13.88,1.48,18.97,4.42c5.08,2.95,9.81,6.79,14.17,11.5l-74.57,83.6
			C1080.99,810.57,1117.95,881.45,1126.34,895.27 M933.61,679.21c-9.31,0-16.43-2.94-21.37-8.85c-4.95-5.89-7.41-12.83-7.41-20.79
			c0-12.38,3.49-21.82,10.47-28.31c6.98-6.48,15.26-9.73,24.85-9.73c9.3,0,16.42,2.95,21.37,8.85c4.94,5.9,7.41,13.27,7.41,22.11
			c0,11.5-3.49,20.5-10.46,26.98C951.49,675.97,943.2,679.21,933.61,679.21 M919.66,714.15c11.92,0,20.42,2.87,25.51,8.62
			c5.08,5.75,8.24,12.32,7.63,21.45c-0.12,1.77-1.25,8.85-1.54,10.61l-27.22,164.21c-0.59,3.55-2.93,6.63-6.54,6.63h-45.8
			c-3.61,0-6.54-2.97-6.54-6.63L898.65,716C902.14,715.41,916.75,714.15,919.66,714.15 M858.3,800.44l-19.56,118.61
			c-0.54,3.57-2.93,6.63-6.54,6.63l-45.65-0.01c-3.61,0-6.68-3.05-6.68-6.71l20.82-126.17c0.06-0.54,0.14-1.1,0.2-1.63
			c0.28-2.94,1.04-5.95,1.04-8.91c0-6.78-1.53-12.53-4.58-17.25c-3.05-4.71-9.23-7.08-18.53-7.08c-9.31,0-17.44,3.98-24.42,11.94
			c-5.77,6.59-9.83,14.71-12.22,24.33l-20.78,124.86c-0.62,3.6-2.93,6.63-6.54,6.63l-46.03-0.03c-3.61,0-6.54-2.97-6.54-6.63
			l50.54-305.84c3.49-0.59,16.86-1.67,19.77-1.67c11.92,0,20.81,3.13,26.03,8.76c8.7,9.38,7.56,24.99,7.41,26.76
			c-0.15,1.77-0.37,3.54-0.66,5.31l-13.53,82.22c6.69-6.78,14.02-12.7,23.04-17.56c9.01-4.87,20.34-7.3,34.01-7.3
			c13.08,0,23.69,2.95,31.83,8.85c8.14,5.9,13.8,13.42,17.01,22.56c2.9,8.55,4.36,17.99,4.36,28.31c0,5.31-0.66,10.51-1.24,15.66
			C860.27,790.26,859.17,795.43,858.3,800.44"/>
		
			<path style="clip-path:url(#SVGID_00000109725863369239998470000004845481380955876996_);fill-rule:evenodd;clip-rule:evenodd;fill:#FFFFFF;" d="
			M1312.21,649.79c-5.56,0-10.99,0.7-16.23,2.04l0,0c-8.54-32.69-36.83-54.19-70.27-56.69c-40.66-3.04-65.08,38.92-65.33,42.99
			c-35.53-19.86-76.12,8.68-74.56,58.05h2.54c2.19-53.32,48.97-62.96,69.11-50.18c-2.94,8.38-4.68,17.12-4.68,26.59
			c0,3.55,0.23,7.06,0.65,10.5h0.98c0.26-12.53,2.91-24.35,7.4-34.85c1.02-2.37,2.14-4.67,3.34-6.89h0
			c12.04-22.35,33.04-37.15,56.92-37.15c28.67,0,53.17,21.34,63.02,51.47v0c1.27,3.88,2.31,7.91,3.06,12.07
			c3.24-1.53,6.59-2.76,10.05-3.63c4.36-1.12,8.88-1.71,13.49-1.71c38.59,0,69.87,40.98,69.87,91.52c0,33.78-13.95,63.26-34.74,79.1
			v2.62c0.42-0.23,0.82-0.49,1.22-0.74c25.81-16.14,43.5-49.16,43.5-87.29C1391.53,693.58,1356.01,649.79,1312.21,649.79"/>
	</g>
</g>
</svg>
